<?xml version="1.0" encoding="iso-8859-1"?>
<svg width="901" height="278" viewBox="0 0 901 278" fill="none" xmlns="http://www.w3.org/2000/svg">
    <path fill-rule="evenodd" clip-rule="evenodd" d="M184 240C214.928 240 240 214.928 240 184C240 153.072 214.928 128 184 128C153.072 128 128 153.072 128 184C128 214.928 153.072 240 184 240Z" fill="#7E83C4"/>
    <rect x="128" y="128" width="56" height="56" fill="#7E83C4"/>
    <path fill-rule="evenodd" clip-rule="evenodd" d="M56 240C25.0721 240 -7.62939e-06 214.928 -7.62939e-06 184C-7.62939e-06 153.072 25.0721 128 56 128C86.9279 128 112 153.072 112 184C112 214.928 86.9279 240 56 240Z" fill="#7E83C4"/>
    <rect width="56" height="56" transform="matrix(-1 0 0 1 112 128)" fill="#7E83C4"/>
    <path fill-rule="evenodd" clip-rule="evenodd" d="M184 -7.62939e-06C214.928 -7.62939e-06 240 25.0721 240 56C240 86.9279 214.928 112 184 112C153.072 112 128 86.9279 128 56C128 25.0721 153.072 -7.62939e-06 184 -7.62939e-06Z" fill="#7E83C4"/>
    <rect width="56" height="56" transform="matrix(1 0 0 -1 128 112)" fill="#7E83C4"/>
    <path d="M138 119.92C138 103.92 142 88.96 150 75.04C158.16 61.12 169.12 50.08 182.88 41.92C196.8 33.6 211.84 29.44 228 29.44C244.16 29.44 259.12 33.6 272.88 41.92C286.8 50.08 297.84 61.12 306 75.04C314.32 88.96 318.48 103.92 318.48 119.92C318.48 136.24 314.32 151.28 306 165.04C297.84 178.8 286.8 189.76 272.88 197.92C259.12 205.92 244.16 209.92 228 209.92C211.68 209.92 196.64 205.92 182.88 197.92C169.12 189.76 158.16 178.8 150 165.04C142 151.28 138 136.24 138 119.92ZM174 119.92C174 130.16 176.4 139.6 181.2 148.24C186.16 156.88 192.8 163.76 201.12 168.88C209.6 173.84 218.96 176.32 229.2 176.32C239.12 176.32 248.16 173.84 256.32 168.88C264.48 163.76 270.88 156.96 275.52 148.48C280.16 139.84 282.48 130.32 282.48 119.92C282.48 109.36 280.08 99.76 275.28 91.12C270.48 82.48 263.92 75.68 255.6 70.72C247.44 65.6 238.32 63.04 228.24 63.04C218.16 63.04 208.96 65.6 200.64 70.72C192.48 75.68 186 82.48 181.2 91.12C176.4 99.76 174 109.36 174 119.92ZM380.535 127.12C383.415 121.52 387.335 116.48 392.295 112C397.415 107.52 402.615 104.08 407.895 101.68C413.175 99.12 417.335 97.84 420.375 97.84L418.695 131.44C417.735 131.28 416.375 131.2 414.615 131.2C407.895 131.2 401.975 132.96 396.855 136.48C391.735 140 387.815 144.56 385.095 150.16C382.375 155.6 381.015 161.2 381.015 166.96V208H347.655V103.12H377.895L380.535 127.12ZM530.445 198.64C525.805 202.32 519.965 205.28 512.925 207.52C506.045 209.76 499.245 210.88 492.525 210.88C474.285 210.88 459.805 206 449.085 196.24C438.525 186.32 433.245 172.72 433.245 155.44C433.245 144.24 435.805 134.48 440.925 126.16C446.205 117.68 453.085 111.28 461.565 106.96C470.045 102.48 479.165 100.24 488.925 100.24C506.365 100.24 520.525 104.88 531.405 114.16L515.085 135.76C508.205 130.32 500.525 127.6 492.045 127.6C485.005 127.6 479.005 130.24 474.045 135.52C469.245 140.8 466.845 147.44 466.845 155.44C466.845 163.44 469.485 170.16 474.765 175.6C480.045 180.88 486.925 183.52 495.405 183.52C502.765 183.52 508.845 181.52 513.645 177.52L530.445 198.64ZM629.209 98.08C639.129 98.08 647.369 101.04 653.929 106.96C660.649 112.88 664.089 120.4 664.249 129.52V208H630.649V142C630.169 131.76 625.049 126.64 615.289 126.64C607.609 126.64 601.449 130.24 596.809 137.44C592.169 144.64 589.849 153.92 589.849 165.28V208H556.249V18.64H589.129V119.68C592.969 112.96 598.249 107.68 604.969 103.84C611.849 100 619.929 98.08 629.209 98.08ZM732.349 103.12V208H698.749V103.12H732.349ZM698.029 65.92C698.029 61.12 699.869 57.12 703.549 53.92C707.389 50.56 711.709 48.88 716.509 48.88C721.149 48.88 725.309 50.56 728.989 53.92C732.669 57.12 734.509 61.12 734.509 65.92C734.509 70.72 732.669 74.72 728.989 77.92C725.309 81.12 721.149 82.72 716.509 82.72C711.709 82.72 707.389 81.12 703.549 77.92C699.869 74.72 698.029 70.72 698.029 65.92ZM882.152 18.64V208H848.552V196.96C836.392 206.24 823.432 210.88 809.672 210.88C799.912 210.88 791.192 208.56 783.512 203.92C775.832 199.28 769.752 192.64 765.272 184C760.952 175.36 758.792 165.2 758.792 153.52C758.792 142 761.112 132.08 765.752 123.76C770.552 115.28 777.112 108.88 785.432 104.56C793.752 100.08 803.272 97.84 813.992 97.84C820.872 97.84 827.352 98.96 833.432 101.2C839.512 103.28 844.632 106.4 848.792 110.56V18.64H882.152ZM820.712 182.56C827.432 182.56 833.032 181.28 837.512 178.72C841.992 176 845.672 172 848.552 166.72V141.04C846.632 135.92 843.192 131.84 838.232 128.8C833.272 125.76 827.432 124.24 820.712 124.24C813.192 124.24 806.632 126.96 801.032 132.4C795.592 137.84 792.872 144.72 792.872 153.04C792.872 158.48 794.152 163.52 796.712 168.16C799.272 172.64 802.632 176.16 806.792 178.72C811.112 181.28 815.752 182.56 820.712 182.56Z" fill="white"/>
</svg>
