<?xml version="1.0" encoding="iso-8859-1"?>
<svg width="48" height="64" viewBox="0 0 48 64" fill="none" xmlns="http://www.w3.org/2000/svg">
	<path fill-rule="evenodd" clip-rule="evenodd" d="M4 0C1.79086 0 0 1.79086 0 4V60C0 62.2091 1.79086 64 4 64H44C46.2091 64 48 62.2091 48 60V12L36 0H4Z" fill="#F2E1C2"/>
	<path d="M0 40H48V60C48 62.2091 46.2091 64 44 64H4C1.79086 64 0 62.2091 0 60V40Z" fill="#294FD6"/>
	<path d="M9.96391 54.992C9.96391 54.712 10.0666 54.474 10.2719 54.278C10.4772 54.0727 10.7106 53.97 10.9719 53.97C11.2146 53.97 11.4386 54.0727 11.6439 54.278C11.8492 54.474 11.9519 54.712 11.9519 54.992C11.9519 55.2813 11.8492 55.524 11.6439 55.72C11.4479 55.9067 11.2239 56 10.9719 56C10.7106 56 10.4772 55.9067 10.2719 55.72C10.0666 55.5333 9.96391 55.2907 9.96391 54.992ZM21.2182 55.146C20.9568 55.3607 20.5415 55.5753 19.9722 55.79C19.4028 56.0047 18.7822 56.112 18.1102 56.112C17.0368 56.112 16.1035 55.8787 15.3102 55.412C14.5168 54.9453 13.9102 54.32 13.4902 53.536C13.0702 52.7427 12.8602 51.8747 12.8602 50.932C12.8602 49.896 13.0702 48.972 13.4902 48.16C13.9102 47.348 14.4982 46.718 15.2542 46.27C16.0102 45.8127 16.8828 45.584 17.8722 45.584C18.4975 45.584 19.0762 45.668 19.6082 45.836C20.1402 46.004 20.6068 46.214 21.0082 46.466L20.2102 48.384C19.4728 47.824 18.7168 47.544 17.9422 47.544C17.4195 47.544 16.9295 47.6887 16.4722 47.978C16.0148 48.2673 15.6508 48.664 15.3802 49.168C15.1095 49.6627 14.9742 50.2133 14.9742 50.82C14.9742 51.4827 15.1002 52.066 15.3522 52.57C15.6042 53.0647 15.9635 53.452 16.4302 53.732C16.8968 54.012 17.4428 54.152 18.0682 54.152C18.5722 54.152 19.0248 54.0727 19.4262 53.914C19.8275 53.746 20.1448 53.55 20.3782 53.326L21.2182 55.146ZM28.7539 48.188C27.8579 47.6933 27.0785 47.446 26.4159 47.446C25.9679 47.446 25.6179 47.5347 25.3659 47.712C25.1232 47.8893 25.0019 48.1553 25.0019 48.51C25.0019 48.8367 25.1792 49.126 25.5339 49.378C25.8979 49.6207 26.3785 49.854 26.9759 50.078C27.4612 50.2553 27.8765 50.4607 28.2219 50.694C28.5672 50.918 28.8519 51.2307 29.0759 51.632C29.3092 52.0333 29.4259 52.542 29.4259 53.158C29.4259 53.69 29.2859 54.1847 29.0059 54.642C28.7352 55.09 28.3339 55.4493 27.8019 55.72C27.2699 55.9813 26.6352 56.112 25.8979 56.112C25.2819 56.112 24.6705 56.0233 24.0639 55.846C23.4572 55.6593 22.8925 55.3793 22.3699 55.006L23.2659 53.424C23.6205 53.6853 24.0265 53.9 24.4839 54.068C24.9412 54.236 25.3519 54.32 25.7159 54.32C26.1452 54.32 26.5185 54.2313 26.8359 54.054C27.1532 53.8673 27.3119 53.5687 27.3119 53.158C27.3119 52.626 26.8125 52.164 25.8139 51.772C25.2259 51.5387 24.7359 51.3147 24.3439 51.1C23.9519 50.8853 23.6112 50.5773 23.3219 50.176C23.0419 49.7747 22.9019 49.2707 22.9019 48.664C22.9019 47.7773 23.1912 47.0633 23.7699 46.522C24.3579 45.9807 25.1372 45.6867 26.1079 45.64C26.8732 45.64 27.5125 45.7287 28.0259 45.906C28.5392 46.074 29.0385 46.3167 29.5239 46.634L28.7539 48.188ZM36.916 48.188C36.02 47.6933 35.2407 47.446 34.578 47.446C34.13 47.446 33.78 47.5347 33.528 47.712C33.2853 47.8893 33.164 48.1553 33.164 48.51C33.164 48.8367 33.3413 49.126 33.696 49.378C34.06 49.6207 34.5407 49.854 35.138 50.078C35.6233 50.2553 36.0387 50.4607 36.384 50.694C36.7293 50.918 37.014 51.2307 37.238 51.632C37.4713 52.0333 37.588 52.542 37.588 53.158C37.588 53.69 37.448 54.1847 37.168 54.642C36.8973 55.09 36.496 55.4493 35.964 55.72C35.432 55.9813 34.7973 56.112 34.06 56.112C33.444 56.112 32.8327 56.0233 32.226 55.846C31.6193 55.6593 31.0547 55.3793 30.532 55.006L31.428 53.424C31.7827 53.6853 32.1887 53.9 32.646 54.068C33.1033 54.236 33.514 54.32 33.878 54.32C34.3073 54.32 34.6807 54.2313 34.998 54.054C35.3153 53.8673 35.474 53.5687 35.474 53.158C35.474 52.626 34.9747 52.164 33.976 51.772C33.388 51.5387 32.898 51.3147 32.506 51.1C32.114 50.8853 31.7733 50.5773 31.484 50.176C31.204 49.7747 31.064 49.2707 31.064 48.664C31.064 47.7773 31.3533 47.0633 31.932 46.522C32.52 45.9807 33.2993 45.6867 34.27 45.64C35.0353 45.64 35.6747 45.7287 36.188 45.906C36.7013 46.074 37.2007 46.3167 37.686 46.634L36.916 48.188Z" fill="white"/>
	<path d="M9.75391 57.4H38.246V58.1H9.75391V57.4Z" fill="white"/>
	<path d="M48 12L36 0V8C36 10.2091 37.7909 12 40 12H48Z" fill="#F2D194"/>
</svg>
