<?xml version="1.0" encoding="iso-8859-1"?>
<svg width="48" height="64" viewBox="0 0 48 64" fill="none" xmlns="http://www.w3.org/2000/svg">
	<path fill-rule="evenodd" clip-rule="evenodd" d="M4 0C1.79086 0 0 1.79086 0 4V60C0 62.2091 1.79086 64 4 64H44C46.2091 64 48 62.2091 48 60V12L36 0H4Z" fill="#F2E1C2"/>
	<path d="M0 40H48V60C48 62.2091 46.2091 64 44 64H4C1.79086 64 0 62.2091 0 60V40Z" fill="#397347"/>
	<path d="M8.89066 54.992C8.89066 54.712 8.99333 54.474 9.19866 54.278C9.404 54.0727 9.63733 53.97 9.89866 53.97C10.1413 53.97 10.3653 54.0727 10.5707 54.278C10.776 54.474 10.8787 54.712 10.8787 54.992C10.8787 55.2813 10.776 55.524 10.5707 55.72C10.3747 55.9067 10.1507 56 9.89866 56C9.63733 56 9.404 55.9067 9.19866 55.72C8.99333 55.5333 8.89066 55.2907 8.89066 54.992ZM20.1449 55.146C19.8836 55.3607 19.4682 55.5753 18.8989 55.79C18.3296 56.0047 17.7089 56.112 17.0369 56.112C15.9636 56.112 15.0302 55.8787 14.2369 55.412C13.4436 54.9453 12.8369 54.32 12.4169 53.536C11.9969 52.7427 11.7869 51.8747 11.7869 50.932C11.7869 49.896 11.9969 48.972 12.4169 48.16C12.8369 47.348 13.4249 46.718 14.1809 46.27C14.9369 45.8127 15.8096 45.584 16.7989 45.584C17.4242 45.584 18.0029 45.668 18.5349 45.836C19.0669 46.004 19.5336 46.214 19.9349 46.466L19.1369 48.384C18.3996 47.824 17.6436 47.544 16.8689 47.544C16.3462 47.544 15.8562 47.6887 15.3989 47.978C14.9416 48.2673 14.5776 48.664 14.3069 49.168C14.0362 49.6627 13.9009 50.2133 13.9009 50.82C13.9009 51.4827 14.0269 52.066 14.2789 52.57C14.5309 53.0647 14.8902 53.452 15.3569 53.732C15.8236 54.012 16.3696 54.152 16.9949 54.152C17.4989 54.152 17.9516 54.0727 18.3529 53.914C18.7542 53.746 19.0716 53.55 19.3049 53.326L20.1449 55.146ZM27.6806 48.188C26.7846 47.6933 26.0053 47.446 25.3426 47.446C24.8946 47.446 24.5446 47.5347 24.2926 47.712C24.05 47.8893 23.9286 48.1553 23.9286 48.51C23.9286 48.8367 24.106 49.126 24.4606 49.378C24.8246 49.6207 25.3053 49.854 25.9026 50.078C26.388 50.2553 26.8033 50.4607 27.1486 50.694C27.494 50.918 27.7786 51.2307 28.0026 51.632C28.236 52.0333 28.3526 52.542 28.3526 53.158C28.3526 53.69 28.2126 54.1847 27.9326 54.642C27.662 55.09 27.2606 55.4493 26.7286 55.72C26.1966 55.9813 25.562 56.112 24.8246 56.112C24.2086 56.112 23.5973 56.0233 22.9906 55.846C22.384 55.6593 21.8193 55.3793 21.2966 55.006L22.1926 53.424C22.5473 53.6853 22.9533 53.9 23.4106 54.068C23.868 54.236 24.2786 54.32 24.6426 54.32C25.072 54.32 25.4453 54.2313 25.7626 54.054C26.08 53.8673 26.2386 53.5687 26.2386 53.158C26.2386 52.626 25.7393 52.164 24.7406 51.772C24.1526 51.5387 23.6626 51.3147 23.2706 51.1C22.8786 50.8853 22.538 50.5773 22.2486 50.176C21.9686 49.7747 21.8286 49.2707 21.8286 48.664C21.8286 47.7773 22.118 47.0633 22.6966 46.522C23.2846 45.9807 24.064 45.6867 25.0346 45.64C25.8 45.64 26.4393 45.7287 26.9526 45.906C27.466 46.074 27.9653 46.3167 28.4506 46.634L27.6806 48.188ZM38.8667 45.696L34.1627 56.476L29.4587 45.696H31.8947L34.2467 51.506L36.4587 45.696H38.8667Z" fill="white"/>
	<path d="M8.68066 57.4H39.3147V58.1H8.68066V57.4Z" fill="white"/>
	<path d="M48 12L36 0V8C36 10.2091 37.7909 12 40 12H48Z" fill="#F2D194"/>
</svg>
