<?xml version="1.0" encoding="iso-8859-1"?>
<svg width="48" height="64" viewBox="0 0 48 64" fill="none" xmlns="http://www.w3.org/2000/svg">
	<path fill-rule="evenodd" clip-rule="evenodd" d="M4 0C1.79086 0 0 1.79086 0 4V60C0 62.2091 1.79086 64 4 64H44C46.2091 64 48 62.2091 48 60V12L36 0H4Z" fill="#F2E1C2"/>
	<path d="M0 40H48V60C48 62.2091 46.2091 64 44 64H4C1.79086 64 0 62.2091 0 60V40Z" fill="#D24231"/>
	<path d="M6.90824 54.992C6.90824 54.712 7.01091 54.474 7.21624 54.278C7.42158 54.0727 7.65491 53.97 7.91624 53.97C8.15891 53.97 8.38291 54.0727 8.58824 54.278C8.79358 54.474 8.89624 54.712 8.89624 54.992C8.89624 55.2813 8.79358 55.524 8.58824 55.72C8.39224 55.9067 8.16824 56 7.91624 56C7.65491 56 7.42158 55.9067 7.21624 55.72C7.01091 55.5333 6.90824 55.2907 6.90824 54.992ZM13.3745 53.83C13.3745 54.7073 13.1972 55.4633 12.8425 56.098C12.4972 56.742 12.0072 57.2367 11.3725 57.582C10.7378 57.9273 10.0052 58.114 9.17449 58.142V56.168C10.6118 56.0933 11.3305 55.3 11.3305 53.788V45.696H13.3745V53.83ZM20.8625 53.984H17.4465L16.6065 56H14.6045L19.2525 45.29H19.3645L24.0125 56H21.6605L20.8625 53.984ZM20.1905 52.276L19.1965 49.77L18.1605 52.276H20.1905ZM32.4956 45.696L27.7916 56.476L23.0876 45.696H25.5236L27.8756 51.506L30.0876 45.696H32.4956ZM37.9797 53.984H34.5637L33.7237 56H31.7217L36.3697 45.29H36.4817L41.1297 56H38.7777L37.9797 53.984ZM37.3077 52.276L36.3137 49.77L35.2777 52.276H37.3077Z" fill="white"/>
	<path d="M6.69824 57.4H41.2977V58.1H6.69824V57.4Z" fill="white"/>
	<path d="M48 12L36 0V8C36 10.2091 37.7909 12 40 12H48Z" fill="#F2D194"/>
</svg>
