<?xml version="1.0" encoding="iso-8859-1"?>
<svg width="48" height="64" viewBox="0 0 48 64" fill="none" xmlns="http://www.w3.org/2000/svg">
	<path fill-rule="evenodd" clip-rule="evenodd" d="M4 0C1.79086 0 0 1.79086 0 4V60C0 62.2091 1.79086 64 4 64H44C46.2091 64 48 62.2091 48 60V12L36 0H4Z" fill="#F2E1C2"/>
	<path d="M0 40H48V60C48 62.2091 46.2091 64 44 64H4C1.79086 64 0 62.2091 0 60V40Z" fill="#EDD84E"/>
	<path d="M4.19438 54.992C4.19438 54.712 4.29704 54.474 4.50238 54.278C4.70771 54.0727 4.94104 53.97 5.20238 53.97C5.44504 53.97 5.66904 54.0727 5.87438 54.278C6.07971 54.474 6.18238 54.712 6.18238 54.992C6.18238 55.2813 6.07971 55.524 5.87438 55.72C5.67838 55.9067 5.45438 56 5.20238 56C4.94104 56 4.70771 55.9067 4.50238 55.72C4.29704 55.5333 4.19438 55.2907 4.19438 54.992ZM10.6606 53.83C10.6606 54.7073 10.4833 55.4633 10.1286 56.098C9.78329 56.742 9.29329 57.2367 8.65863 57.582C8.02396 57.9273 7.29129 58.114 6.46063 58.142V56.168C7.89796 56.0933 8.61663 55.3 8.61663 53.788V45.696H10.6606V53.83ZM18.8281 48.188C17.9321 47.6933 17.1528 47.446 16.4901 47.446C16.0421 47.446 15.6921 47.5347 15.4401 47.712C15.1974 47.8893 15.0761 48.1553 15.0761 48.51C15.0761 48.8367 15.2534 49.126 15.6081 49.378C15.9721 49.6207 16.4528 49.854 17.0501 50.078C17.5354 50.2553 17.9508 50.4607 18.2961 50.694C18.6414 50.918 18.9261 51.2307 19.1501 51.632C19.3834 52.0333 19.5001 52.542 19.5001 53.158C19.5001 53.69 19.3601 54.1847 19.0801 54.642C18.8094 55.09 18.4081 55.4493 17.8761 55.72C17.3441 55.9813 16.7094 56.112 15.9721 56.112C15.3561 56.112 14.7448 56.0233 14.1381 55.846C13.5314 55.6593 12.9668 55.3793 12.4441 55.006L13.3401 53.424C13.6948 53.6853 14.1008 53.9 14.5581 54.068C15.0154 54.236 15.4261 54.32 15.7901 54.32C16.2194 54.32 16.5928 54.2313 16.9101 54.054C17.2274 53.8673 17.3861 53.5687 17.3861 53.158C17.3861 52.626 16.8868 52.164 15.8881 51.772C15.3001 51.5387 14.8101 51.3147 14.4181 51.1C14.0261 50.8853 13.6854 50.5773 13.3961 50.176C13.1161 49.7747 12.9761 49.2707 12.9761 48.664C12.9761 47.7773 13.2654 47.0633 13.8441 46.522C14.4321 45.9807 15.2114 45.6867 16.1821 45.64C16.9474 45.64 17.5868 45.7287 18.1001 45.906C18.6134 46.074 19.1128 46.3167 19.5981 46.634L18.8281 48.188ZM20.8582 50.862C20.8582 49.9287 21.0915 49.056 21.5582 48.244C22.0342 47.432 22.6735 46.788 23.4762 46.312C24.2882 45.8267 25.1655 45.584 26.1082 45.584C27.0509 45.584 27.9235 45.8267 28.7262 46.312C29.5382 46.788 30.1822 47.432 30.6582 48.244C31.1435 49.056 31.3862 49.9287 31.3862 50.862C31.3862 51.814 31.1435 52.6913 30.6582 53.494C30.1822 54.2967 29.5382 54.936 28.7262 55.412C27.9235 55.8787 27.0509 56.112 26.1082 56.112C25.1562 56.112 24.2789 55.8787 23.4762 55.412C22.6735 54.936 22.0342 54.2967 21.5582 53.494C21.0915 52.6913 20.8582 51.814 20.8582 50.862ZM22.9582 50.862C22.9582 51.4593 23.0982 52.01 23.3782 52.514C23.6675 53.018 24.0549 53.4193 24.5402 53.718C25.0349 54.0073 25.5809 54.152 26.1782 54.152C26.7569 54.152 27.2842 54.0073 27.7602 53.718C28.2362 53.4193 28.6095 53.0227 28.8802 52.528C29.1509 52.024 29.2862 51.4687 29.2862 50.862C29.2862 50.246 29.1462 49.686 28.8662 49.182C28.5862 48.678 28.2035 48.2813 27.7182 47.992C27.2422 47.6933 26.7102 47.544 26.1222 47.544C25.5342 47.544 24.9975 47.6933 24.5122 47.992C24.0362 48.2813 23.6582 48.678 23.3782 49.182C23.0982 49.686 22.9582 50.246 22.9582 50.862ZM42.6921 45.696V56.42H42.6361L35.4261 49.91L35.4681 56H33.4101V45.29H33.4941L40.6901 51.898L40.6481 45.696H42.6921Z" fill="#363636"/>
	<path d="M3.98438 57.4H44.0221V58.1H3.98438V57.4Z" fill="#363636"/>
	<path d="M48 12L36 0V8C36 10.2091 37.7909 12 40 12H48Z" fill="#F2D194"/>
</svg>
