<?xml version="1.0" encoding="iso-8859-1"?>
<svg width="48" height="64" viewBox="0 0 48 64" fill="none" xmlns="http://www.w3.org/2000/svg">
	<path fill-rule="evenodd" clip-rule="evenodd" d="M4 0C1.79086 0 0 1.79086 0 4V60C0 62.2091 1.79086 64 4 64H44C46.2091 64 48 62.2091 48 60V12L36 0H4Z" fill="#F2E1C2"/>
	<path d="M0 40H48V60C48 62.2091 46.2091 64 44 64H4C1.79086 64 0 62.2091 0 60V40Z" fill="#DE9149"/>
	<path d="M13.9766 54.992C13.9766 54.712 14.0793 54.474 14.2846 54.278C14.4899 54.0727 14.7233 53.97 14.9846 53.97C15.2273 53.97 15.4513 54.0727 15.6566 54.278C15.8619 54.474 15.9646 54.712 15.9646 54.992C15.9646 55.2813 15.8619 55.524 15.6566 55.72C15.4606 55.9067 15.2366 56 14.9846 56C14.7233 56 14.4899 55.9067 14.2846 55.72C14.0793 55.5333 13.9766 55.2907 13.9766 54.992ZM19.5049 49.882L19.8129 49.49L23.1729 45.696H25.8049L21.5489 50.316L25.8189 56H23.2429L20.0649 51.604L19.5609 52.108V56H17.5029V45.696H19.5609V49.364L19.5049 49.882ZM33.6043 45.696V47.656H31.0983V56H29.0683V47.656H26.6603V45.696H33.6043Z" fill="white"/>
	<path d="M13.7666 57.4H34.2343V58.1H13.7666V57.4Z" fill="white"/>
	<path d="M48 12L36 0V8C36 10.2091 37.7909 12 40 12H48Z" fill="#F2D194"/>
</svg>
