<?xml version="1.0" encoding="iso-8859-1"?>
<svg width="48" height="64" viewBox="0 0 48 64" fill="none" xmlns="http://www.w3.org/2000/svg">
	<path fill-rule="evenodd" clip-rule="evenodd" d="M4 0C1.79086 0 0 1.79086 0 4V60C0 62.2091 1.79086 64 4 64H44C46.2091 64 48 62.2091 48 60V12L36 0H4Z" fill="#F2E1C2"/>
	<path d="M0 40H48V60C48 62.2091 46.2091 64 44 64H4C1.79086 64 0 62.2091 0 60V40Z" fill="#475861"/>
	<path d="M10.9688 54.992C10.9688 54.712 11.0715 54.474 11.2768 54.278C11.4821 54.0727 11.7155 53.97 11.9768 53.97C12.2195 53.97 12.4435 54.0727 12.6488 54.278C12.8541 54.474 12.9568 54.712 12.9568 54.992C12.9568 55.2813 12.8541 55.524 12.6488 55.72C12.4528 55.9067 12.2288 56 11.9768 56C11.7155 56 11.4821 55.9067 11.2768 55.72C11.0715 55.5333 10.9688 55.2907 10.9688 54.992ZM25.107 45.276V56H23.077V51.086L19.717 55.86H19.689L16.455 51.394V56H14.495V45.276H14.509L19.731 52.682L25.079 45.276H25.107ZM27.7704 45.696H30.8504C32.1664 45.696 33.2491 45.9527 34.0984 46.466C34.9478 46.97 35.5638 47.628 35.9464 48.44C36.3384 49.2427 36.5344 50.106 36.5344 51.03C36.5344 52.0193 36.3011 52.892 35.8344 53.648C35.3678 54.404 34.7378 54.9873 33.9444 55.398C33.1604 55.7993 32.2971 56 31.3544 56H27.7704V45.696ZM31.0044 54.04C32.0591 54.04 32.8944 53.7693 33.5104 53.228C34.1264 52.6867 34.4344 51.9073 34.4344 50.89C34.4344 50.0687 34.2618 49.4153 33.9164 48.93C33.5804 48.4447 33.1838 48.1087 32.7264 47.922C32.2784 47.7353 31.8538 47.642 31.4524 47.642H29.8004V54.04H31.0044Z" fill="white"/>
	<path d="M10.7588 57.4H37.2344V58.1H10.7588V57.4Z" fill="white"/>
	<path d="M48 12L36 0V8C36 10.2091 37.7909 12 40 12H48Z" fill="#F2D194"/>
</svg>
