<?xml version="1.0" encoding="iso-8859-1"?>
<svg width="48" height="64" viewBox="0 0 48 64" fill="none" xmlns="http://www.w3.org/2000/svg">
	<path fill-rule="evenodd" clip-rule="evenodd" d="M4 0C1.79086 0 0 1.79086 0 4V60C0 62.2091 1.79086 64 4 64H44C46.2091 64 48 62.2091 48 60V12L36 0H4Z" fill="#F2E1C2"/>
	<path d="M0 40H48V60C48 62.2091 46.2091 64 44 64H4C1.79086 64 0 62.2091 0 60V40Z" fill="#986AA6"/>
	<path d="M7.25688 54.992C7.25688 54.712 7.35954 54.474 7.56488 54.278C7.77021 54.0727 8.00354 53.97 8.26488 53.97C8.50754 53.97 8.73154 54.0727 8.93688 54.278C9.14221 54.474 9.24488 54.712 9.24488 54.992C9.24488 55.2813 9.14221 55.524 8.93688 55.72C8.74088 55.9067 8.51688 56 8.26488 56C8.00354 56 7.77021 55.9067 7.56488 55.72C7.35954 55.5333 7.25688 55.2907 7.25688 54.992ZM13.9051 45.696C15.1651 45.696 16.1405 46.0087 16.8311 46.634C17.5218 47.25 17.8671 48.0947 17.8671 49.168C17.8671 49.784 17.7458 50.3627 17.5031 50.904C17.2698 51.436 16.8825 51.8747 16.3411 52.22C15.8091 52.5653 15.1185 52.738 14.2691 52.738H12.8131V56H10.7831V45.696H13.9051ZM14.2551 50.764C14.6378 50.764 14.9458 50.68 15.1791 50.512C15.4125 50.3347 15.5805 50.1293 15.6831 49.896C15.7858 49.6627 15.8371 49.4387 15.8371 49.224C15.8371 48.86 15.7298 48.51 15.5151 48.174C15.3005 47.8287 14.8851 47.656 14.2691 47.656H12.8131V50.764H14.2551ZM28.9655 45.696V56.42H28.9095L21.6995 49.91L21.7415 56H19.6835V45.29H19.7675L26.9635 51.898L26.9215 45.696H28.9655ZM39.9771 54.964C39.8184 55.132 39.5337 55.3093 39.1231 55.496C38.7217 55.6733 38.2737 55.8227 37.7791 55.944C37.2937 56.056 36.8504 56.112 36.4491 56.112C35.3571 56.112 34.3957 55.902 33.5651 55.482C32.7437 55.0527 32.1091 54.4647 31.6611 53.718C31.2131 52.962 30.9891 52.1033 30.9891 51.142C30.9891 49.938 31.2271 48.9207 31.7031 48.09C32.1791 47.25 32.8184 46.6247 33.6211 46.214C34.4237 45.794 35.3104 45.584 36.2811 45.584C36.9064 45.584 37.4944 45.654 38.0451 45.794C38.5957 45.934 39.0811 46.116 39.5011 46.34L38.8431 48.23C38.5724 48.0807 38.1991 47.9453 37.7231 47.824C37.2564 47.6933 36.8644 47.628 36.5471 47.628C35.4271 47.628 34.5684 47.908 33.9711 48.468C33.3831 49.028 33.0891 49.8587 33.0891 50.96C33.0891 51.5947 33.2337 52.15 33.5231 52.626C33.8124 53.0927 34.2137 53.452 34.7271 53.704C35.2497 53.956 35.8424 54.082 36.5051 54.082C37.1397 54.082 37.6111 53.9933 37.9191 53.816V52.57H36.1411V50.61H39.9771V54.964Z" fill="white"/>
	<path d="M7.04688 57.4H40.9571V58.1H7.04688V57.4Z" fill="white"/>
	<path d="M48 12L36 0V8C36 10.2091 37.7909 12 40 12H48Z" fill="#F2D194"/>
</svg>
