<?xml version="1.0" encoding="iso-8859-1"?>
<svg width="48" height="64" viewBox="0 0 48 64" fill="none" xmlns="http://www.w3.org/2000/svg">
	<path fill-rule="evenodd" clip-rule="evenodd" d="M4 0C1.79086 0 0 1.79086 0 4V60C0 62.2091 1.79086 64 4 64H44C46.2091 64 48 62.2091 48 60V12L36 0H4Z" fill="#F2E1C2"/>
	<path d="M0 40H48V60C48 62.2091 46.2091 64 44 64H4C1.79086 64 0 62.2091 0 60V40Z" fill="#C36B98"/>
	<path d="M5.88285 54.992C5.88285 54.712 5.98552 54.474 6.19085 54.278C6.39618 54.0727 6.62952 53.97 6.89085 53.97C7.13352 53.97 7.35752 54.0727 7.56285 54.278C7.76818 54.474 7.87085 54.712 7.87085 54.992C7.87085 55.2813 7.76818 55.524 7.56285 55.72C7.36685 55.9067 7.14285 56 6.89085 56C6.62952 56 6.39618 55.9067 6.19085 55.72C5.98552 55.5333 5.88285 55.2907 5.88285 54.992ZM14.9111 48.188C14.0151 47.6933 13.2358 47.446 12.5731 47.446C12.1251 47.446 11.7751 47.5347 11.5231 47.712C11.2804 47.8893 11.1591 48.1553 11.1591 48.51C11.1591 48.8367 11.3364 49.126 11.6911 49.378C12.0551 49.6207 12.5358 49.854 13.1331 50.078C13.6184 50.2553 14.0338 50.4607 14.3791 50.694C14.7244 50.918 15.0091 51.2307 15.2331 51.632C15.4664 52.0333 15.5831 52.542 15.5831 53.158C15.5831 53.69 15.4431 54.1847 15.1631 54.642C14.8924 55.09 14.4911 55.4493 13.9591 55.72C13.4271 55.9813 12.7924 56.112 12.0551 56.112C11.4391 56.112 10.8278 56.0233 10.2211 55.846C9.61444 55.6593 9.04977 55.3793 8.5271 55.006L9.4231 53.424C9.77777 53.6853 10.1838 53.9 10.6411 54.068C11.0984 54.236 11.5091 54.32 11.8731 54.32C12.3024 54.32 12.6758 54.2313 12.9931 54.054C13.3104 53.8673 13.4691 53.5687 13.4691 53.158C13.4691 52.626 12.9698 52.164 11.9711 51.772C11.3831 51.5387 10.8931 51.3147 10.5011 51.1C10.1091 50.8853 9.76844 50.5773 9.4791 50.176C9.1991 49.7747 9.0591 49.2707 9.0591 48.664C9.0591 47.7773 9.34843 47.0633 9.9271 46.522C10.5151 45.9807 11.2944 45.6867 12.2651 45.64C13.0304 45.64 13.6698 45.7287 14.1831 45.906C14.6964 46.074 15.1958 46.3167 15.6811 46.634L14.9111 48.188ZM25.2992 55.146C25.0379 55.3607 24.6225 55.5753 24.0532 55.79C23.4839 56.0047 22.8632 56.112 22.1912 56.112C21.1179 56.112 20.1845 55.8787 19.3912 55.412C18.5979 54.9453 17.9912 54.32 17.5712 53.536C17.1512 52.7427 16.9412 51.8747 16.9412 50.932C16.9412 49.896 17.1512 48.972 17.5712 48.16C17.9912 47.348 18.5792 46.718 19.3352 46.27C20.0912 45.8127 20.9639 45.584 21.9532 45.584C22.5785 45.584 23.1572 45.668 23.6892 45.836C24.2212 46.004 24.6879 46.214 25.0892 46.466L24.2912 48.384C23.5539 47.824 22.7979 47.544 22.0232 47.544C21.5005 47.544 21.0105 47.6887 20.5532 47.978C20.0959 48.2673 19.7319 48.664 19.4612 49.168C19.1905 49.6627 19.0552 50.2133 19.0552 50.82C19.0552 51.4827 19.1812 52.066 19.4332 52.57C19.6852 53.0647 20.0445 53.452 20.5112 53.732C20.9779 54.012 21.5239 54.152 22.1492 54.152C22.6532 54.152 23.1059 54.0727 23.5072 53.914C23.9085 53.746 24.2259 53.55 24.4592 53.326L25.2992 55.146ZM32.8349 48.188C31.9389 47.6933 31.1596 47.446 30.4969 47.446C30.0489 47.446 29.6989 47.5347 29.4469 47.712C29.2043 47.8893 29.0829 48.1553 29.0829 48.51C29.0829 48.8367 29.2603 49.126 29.6149 49.378C29.9789 49.6207 30.4596 49.854 31.0569 50.078C31.5423 50.2553 31.9576 50.4607 32.3029 50.694C32.6483 50.918 32.9329 51.2307 33.1569 51.632C33.3903 52.0333 33.5069 52.542 33.5069 53.158C33.5069 53.69 33.3669 54.1847 33.0869 54.642C32.8163 55.09 32.4149 55.4493 31.8829 55.72C31.3509 55.9813 30.7163 56.112 29.9789 56.112C29.3629 56.112 28.7516 56.0233 28.1449 55.846C27.5383 55.6593 26.9736 55.3793 26.4509 55.006L27.3469 53.424C27.7016 53.6853 28.1076 53.9 28.5649 54.068C29.0223 54.236 29.4329 54.32 29.7969 54.32C30.2263 54.32 30.5996 54.2313 30.9169 54.054C31.2343 53.8673 31.3929 53.5687 31.3929 53.158C31.3929 52.626 30.8936 52.164 29.8949 51.772C29.3069 51.5387 28.8169 51.3147 28.4249 51.1C28.0329 50.8853 27.6923 50.5773 27.4029 50.176C27.1229 49.7747 26.9829 49.2707 26.9829 48.664C26.9829 47.7773 27.2723 47.0633 27.8509 46.522C28.4389 45.9807 29.2183 45.6867 30.1889 45.64C30.9543 45.64 31.5936 45.7287 32.1069 45.906C32.6203 46.074 33.1196 46.3167 33.6049 46.634L32.8349 48.188ZM40.997 48.188C40.101 47.6933 39.3217 47.446 38.659 47.446C38.211 47.446 37.861 47.5347 37.609 47.712C37.3664 47.8893 37.245 48.1553 37.245 48.51C37.245 48.8367 37.4224 49.126 37.777 49.378C38.141 49.6207 38.6217 49.854 39.219 50.078C39.7044 50.2553 40.1197 50.4607 40.465 50.694C40.8104 50.918 41.095 51.2307 41.319 51.632C41.5524 52.0333 41.669 52.542 41.669 53.158C41.669 53.69 41.529 54.1847 41.249 54.642C40.9784 55.09 40.577 55.4493 40.045 55.72C39.513 55.9813 38.8784 56.112 38.141 56.112C37.525 56.112 36.9137 56.0233 36.307 55.846C35.7004 55.6593 35.1357 55.3793 34.613 55.006L35.509 53.424C35.8637 53.6853 36.2697 53.9 36.727 54.068C37.1844 54.236 37.595 54.32 37.959 54.32C38.3884 54.32 38.7617 54.2313 39.079 54.054C39.3964 53.8673 39.555 53.5687 39.555 53.158C39.555 52.626 39.0557 52.164 38.057 51.772C37.469 51.5387 36.979 51.3147 36.587 51.1C36.195 50.8853 35.8544 50.5773 35.565 50.176C35.285 49.7747 35.145 49.2707 35.145 48.664C35.145 47.7773 35.4344 47.0633 36.013 46.522C36.601 45.9807 37.3804 45.6867 38.351 45.64C39.1164 45.64 39.7557 45.7287 40.269 45.906C40.7824 46.074 41.2817 46.3167 41.767 46.634L40.997 48.188Z" fill="white"/>
	<path d="M5.67285 57.4H42.327V58.1H5.67285V57.4Z" fill="white"/>
	<path d="M48 12L36 0V8C36 10.2091 37.7909 12 40 12H48Z" fill="#F2D194"/>
</svg>
