<?xml version="1.0" encoding="iso-8859-1"?>
<svg width="48" height="64" viewBox="0 0 48 64" fill="none" xmlns="http://www.w3.org/2000/svg">
	<path fill-rule="evenodd" clip-rule="evenodd" d="M4 0C1.79086 0 0 1.79086 0 4V60C0 62.2091 1.79086 64 4 64H44C46.2091 64 48 62.2091 48 60V12L36 0H4Z" fill="#F2E1C2"/>
	<path d="M0 40H48V60C48 62.2091 46.2091 64 44 64H4C1.79086 64 0 62.2091 0 60V40Z" fill="#EFB961"/>
	<path d="M8.78813 54.992C8.78813 54.712 8.89079 54.474 9.09613 54.278C9.30146 54.0727 9.53479 53.97 9.79613 53.97C10.0388 53.97 10.2628 54.0727 10.4681 54.278C10.6735 54.474 10.7761 54.712 10.7761 54.992C10.7761 55.2813 10.6735 55.524 10.4681 55.72C10.2721 55.9067 10.0481 56 9.79613 56C9.53479 56 9.30146 55.9067 9.09613 55.72C8.89079 55.5333 8.78813 55.2907 8.78813 54.992ZM17.8164 48.188C16.9204 47.6933 16.141 47.446 15.4784 47.446C15.0304 47.446 14.6804 47.5347 14.4284 47.712C14.1857 47.8893 14.0644 48.1553 14.0644 48.51C14.0644 48.8367 14.2417 49.126 14.5964 49.378C14.9604 49.6207 15.441 49.854 16.0384 50.078C16.5237 50.2553 16.939 50.4607 17.2844 50.694C17.6297 50.918 17.9144 51.2307 18.1384 51.632C18.3717 52.0333 18.4884 52.542 18.4884 53.158C18.4884 53.69 18.3484 54.1847 18.0684 54.642C17.7977 55.09 17.3964 55.4493 16.8644 55.72C16.3324 55.9813 15.6977 56.112 14.9604 56.112C14.3444 56.112 13.733 56.0233 13.1264 55.846C12.5197 55.6593 11.955 55.3793 11.4324 55.006L12.3284 53.424C12.683 53.6853 13.089 53.9 13.5464 54.068C14.0037 54.236 14.4144 54.32 14.7784 54.32C15.2077 54.32 15.581 54.2313 15.8984 54.054C16.2157 53.8673 16.3744 53.5687 16.3744 53.158C16.3744 52.626 15.875 52.164 14.8764 51.772C14.2884 51.5387 13.7984 51.3147 13.4064 51.1C13.0144 50.8853 12.6737 50.5773 12.3844 50.176C12.1044 49.7747 11.9644 49.2707 11.9644 48.664C11.9644 47.7773 12.2537 47.0633 12.8324 46.522C13.4204 45.9807 14.1997 45.6867 15.1704 45.64C15.9357 45.64 16.575 45.7287 17.0884 45.906C17.6017 46.074 18.101 46.3167 18.5864 46.634L17.8164 48.188ZM29.0025 45.696L24.2985 56.476L19.5945 45.696H22.0305L24.3825 51.506L26.5945 45.696H29.0025ZM38.4458 54.964C38.2871 55.132 38.0025 55.3093 37.5918 55.496C37.1905 55.6733 36.7425 55.8227 36.2478 55.944C35.7625 56.056 35.3191 56.112 34.9178 56.112C33.8258 56.112 32.8645 55.902 32.0338 55.482C31.2125 55.0527 30.5778 54.4647 30.1298 53.718C29.6818 52.962 29.4578 52.1033 29.4578 51.142C29.4578 49.938 29.6958 48.9207 30.1718 48.09C30.6478 47.25 31.2871 46.6247 32.0898 46.214C32.8925 45.794 33.7791 45.584 34.7498 45.584C35.3751 45.584 35.9631 45.654 36.5138 45.794C37.0645 45.934 37.5498 46.116 37.9698 46.34L37.3118 48.23C37.0411 48.0807 36.6678 47.9453 36.1918 47.824C35.7251 47.6933 35.3331 47.628 35.0158 47.628C33.8958 47.628 33.0371 47.908 32.4398 48.468C31.8518 49.028 31.5578 49.8587 31.5578 50.96C31.5578 51.5947 31.7025 52.15 31.9918 52.626C32.2811 53.0927 32.6825 53.452 33.1958 53.704C33.7185 53.956 34.3111 54.082 34.9738 54.082C35.6085 54.082 36.0798 53.9933 36.3878 53.816V52.57H34.6098V50.61H38.4458V54.964Z" fill="white"/>
	<path d="M8.57812 57.4H39.4258V58.1H8.57812V57.4Z" fill="white"/>
	<path d="M48 12L36 0V8C36 10.2091 37.7909 12 40 12H48Z" fill="#F2D194"/>
</svg>
