<?xml version="1.0" encoding="iso-8859-1"?>
<svg width="48" height="64" viewBox="0 0 48 64" fill="none" xmlns="http://www.w3.org/2000/svg">
	<path fill-rule="evenodd" clip-rule="evenodd" d="M4 0C1.79086 0 0 1.79086 0 4V60C0 62.2091 1.79086 64 4 64H44C46.2091 64 48 62.2091 48 60V12L36 0H4Z" fill="#F2E1C2"/>
	<path d="M0 40H48V60C48 62.2091 46.2091 64 44 64H4C1.79086 64 0 62.2091 0 60V40Z" fill="#DB6647"/>
	<path d="M4.38703 54.136C4.38703 53.896 4.47503 53.692 4.65103 53.524C4.82703 53.348 5.02703 53.26 5.25103 53.26C5.45903 53.26 5.65103 53.348 5.82703 53.524C6.00303 53.692 6.09103 53.896 6.09103 54.136C6.09103 54.384 6.00303 54.592 5.82703 54.76C5.65903 54.92 5.46703 55 5.25103 55C5.02703 55 4.82703 54.92 4.65103 54.76C4.47503 54.6 4.38703 54.392 4.38703 54.136ZM12.1255 48.304C11.3575 47.88 10.6895 47.668 10.1215 47.668C9.73753 47.668 9.43753 47.744 9.22153 47.896C9.01353 48.048 8.90953 48.276 8.90953 48.58C8.90953 48.86 9.06153 49.108 9.36553 49.324C9.67753 49.532 10.0895 49.732 10.6015 49.924C11.0175 50.076 11.3735 50.252 11.6695 50.452C11.9655 50.644 12.2095 50.912 12.4015 51.256C12.6015 51.6 12.7015 52.036 12.7015 52.564C12.7015 53.02 12.5815 53.444 12.3415 53.836C12.1095 54.22 11.7655 54.528 11.3095 54.76C10.8535 54.984 10.3095 55.096 9.67753 55.096C9.14953 55.096 8.62553 55.02 8.10553 54.868C7.58553 54.708 7.10153 54.468 6.65353 54.148L7.42153 52.792C7.72553 53.016 8.07353 53.2 8.46553 53.344C8.85753 53.488 9.20953 53.56 9.52153 53.56C9.88953 53.56 10.2095 53.484 10.4815 53.332C10.7535 53.172 10.8895 52.916 10.8895 52.564C10.8895 52.108 10.4615 51.712 9.60553 51.376C9.10153 51.176 8.68153 50.984 8.34553 50.8C8.00953 50.616 7.71753 50.352 7.46953 50.008C7.22953 49.664 7.10953 49.232 7.10953 48.712C7.10953 47.952 7.35753 47.34 7.85353 46.876C8.35753 46.412 9.02553 46.16 9.85753 46.12C10.5135 46.12 11.0615 46.196 11.5015 46.348C11.9415 46.492 12.3695 46.7 12.7855 46.972L12.1255 48.304ZM21.7496 55.384L19.6496 50.152L17.2016 55.408L13.6496 46.228H15.6896L17.4296 51.34L18.7736 47.968L18.0776 46.228H19.8056L21.7856 51.136L23.2856 46.228H25.1576L21.7496 55.384ZM28.4269 46.168V55H26.6869V46.168H28.4269ZM36.2264 46.168V47.848H32.4464V49.852H35.7224V51.532H32.4464V55H30.7064V46.168H36.2264ZM43.2537 46.168V47.848H41.1057V55H39.3657V47.848H37.3017V46.168H43.2537Z" fill="white"/>
	<path d="M4.20703 56.2H43.7937V56.8H4.20703V56.2Z" fill="white"/>
	<path d="M48 12L36 0V8C36 10.2091 37.7909 12 40 12H48Z" fill="#F2D194"/>
</svg>
