<?xml version="1.0" encoding="iso-8859-1"?>
<svg width="48" height="64" viewBox="0 0 48 64" fill="none" xmlns="http://www.w3.org/2000/svg">
	<path fill-rule="evenodd" clip-rule="evenodd" d="M4 0C1.79086 0 0 1.79086 0 4V60C0 62.2091 1.79086 64 4 64H44C46.2091 64 48 62.2091 48 60V12L36 0H4Z" fill="#F2E1C2"/>
	<path d="M0 40H48V60C48 62.2091 46.2091 64 44 64H4C1.79086 64 0 62.2091 0 60V40Z" fill="#444444"/>
	<path d="M10.0801 54.992C10.0801 54.712 10.1828 54.474 10.3881 54.278C10.5935 54.0727 10.8268 53.97 11.0881 53.97C11.3308 53.97 11.5548 54.0727 11.7601 54.278C11.9655 54.474 12.0681 54.712 12.0681 54.992C12.0681 55.2813 11.9655 55.524 11.7601 55.72C11.5641 55.9067 11.3401 56 11.0881 56C10.8268 56 10.5935 55.9067 10.3881 55.72C10.1828 55.5333 10.0801 55.2907 10.0801 54.992ZM19.1531 45.696V47.656H16.6471V56H14.6171V47.656H12.2091V45.696H19.1531ZM26.9642 56L24.6542 52.444L22.6522 56H20.1322L23.5062 50.68L20.2722 45.696H22.8622L25.0882 49.112L27.0202 45.696H29.4842L26.2082 50.82L29.5822 56H26.9642ZM37.5008 45.696V47.656H34.9948V56H32.9648V47.656H30.5568V45.696H37.5008Z" fill="white"/>
	<path d="M9.87012 57.4H38.1308V58.1H9.87012V57.4Z" fill="white"/>
	<path d="M48 12L36 0V8C36 10.2091 37.7909 12 40 12H48Z" fill="#F2D194"/>
</svg>
