<?xml version="1.0" encoding="iso-8859-1"?>
<svg width="48" height="64" viewBox="0 0 48 64" fill="none" xmlns="http://www.w3.org/2000/svg">
	<path fill-rule="evenodd" clip-rule="evenodd" d="M4 0C1.79086 0 0 1.79086 0 4V60C0 62.2091 1.79086 64 4 64H44C46.2091 64 48 62.2091 48 60V12L36 0H4Z" fill="#F2E1C2"/>
	<path d="M0 40H48V60C48 62.2091 46.2091 64 44 64H4C1.79086 64 0 62.2091 0 60V40Z" fill="#E19B3E"/>
	<path d="M6.81254 54.992C6.81254 54.712 6.91521 54.474 7.12054 54.278C7.32587 54.0727 7.55921 53.97 7.82054 53.97C8.06321 53.97 8.28721 54.0727 8.49254 54.278C8.69787 54.474 8.80054 54.712 8.80054 54.992C8.80054 55.2813 8.69787 55.524 8.49254 55.72C8.29654 55.9067 8.07254 56 7.82054 56C7.55921 56 7.32587 55.9067 7.12054 55.72C6.91521 55.5333 6.81254 55.2907 6.81254 54.992ZM16.1908 56L13.8808 52.444L11.8788 56H9.35879L12.7328 50.68L9.49879 45.696H12.0888L14.3148 49.112L16.2468 45.696H18.7108L15.4348 50.82L18.8088 56H16.1908ZM31.0953 45.276V56H29.0653V51.086L25.7053 55.86H25.6773L22.4433 51.394V56H20.4833V45.276H20.4973L25.7193 52.682L31.0673 45.276H31.0953ZM35.7887 45.696V54.04H40.6327V56H33.7587V45.696H35.7887Z" fill="white"/>
	<path d="M6.60254 57.4H41.4027V58.1H6.60254V57.4Z" fill="white"/>
	<path d="M48 12L36 0V8C36 10.2091 37.7909 12 40 12H48Z" fill="#F2D194"/>
</svg>
