<?xml version="1.0" encoding="UTF-8" standalone="no"?>
<!-- Created with Inkscape (http://www.inkscape.org/) -->

<svg
   xmlns:dc="http://purl.org/dc/elements/1.1/"
   xmlns:cc="http://creativecommons.org/ns#"
   xmlns:rdf="http://www.w3.org/1999/02/22-rdf-syntax-ns#"
   xmlns:svg="http://www.w3.org/2000/svg"
   xmlns="http://www.w3.org/2000/svg"
   xmlns:xlink="http://www.w3.org/1999/xlink"
   xmlns:sodipodi="http://sodipodi.sourceforge.net/DTD/sodipodi-0.dtd"
   xmlns:inkscape="http://www.inkscape.org/namespaces/inkscape"
   version="1.1"
   width="340"
   height="86"
   id="svg3055"
   inkscape:version="0.92.4 (5da689c313, 2019-01-14)"
   sodipodi:docname="maven.svg">
  <sodipodi:namedview
     pagecolor="#ffffff"
     bordercolor="#666666"
     borderopacity="1"
     objecttolerance="10"
     gridtolerance="10"
     guidetolerance="10"
     inkscape:pageopacity="0"
     inkscape:pageshadow="2"
     inkscape:window-width="1600"
     inkscape:window-height="877"
     id="namedview188"
     showgrid="false"
     inkscape:zoom="0.91176471"
     inkscape:cx="170"
     inkscape:cy="43"
     inkscape:window-x="-8"
     inkscape:window-y="-8"
     inkscape:window-maximized="1"
     inkscape:current-layer="svg3055" />
  <metadata
     id="metadata3061">
    <rdf:RDF>
      <cc:Work
         rdf:about="">
        <dc:format>image/svg+xml</dc:format>
        <dc:type
           rdf:resource="http://purl.org/dc/dcmitype/StillImage" />
        <dc:title></dc:title>
      </cc:Work>
    </rdf:RDF>
  </metadata>
  <defs
     id="defs3059">
    <linearGradient
       x1="0"
       y1="0"
       x2="1"
       y2="0"
       id="linearGradient12648"
       xlink:href="#linearGradient11392"
       gradientUnits="userSpaceOnUse"
       gradientTransform="translate(-44.21456,-9.8500092)" />
    <linearGradient
       x1="-7708.7969"
       y1="-803.36011"
       x2="-7633.1528"
       y2="-714.90741"
       id="linearGradient5344"
       xlink:href="#SVGID_1_"
       gradientUnits="userSpaceOnUse"
       gradientTransform="matrix(0.4226,-0.9063,0.9063,0.4226,4226.9761,-6584.5938)" />
    <linearGradient
       x1="-8268.6387"
       y1="-813.12323"
       x2="-7728.9585"
       y2="-813.12323"
       id="linearGradient5346"
       xlink:href="#SVGID_2_"
       gradientUnits="userSpaceOnUse"
       gradientTransform="matrix(0.4226,-0.9063,0.9063,0.4226,4226.9761,-6584.5938)" />
    <linearGradient
       x1="-8203.4922"
       y1="-758.99402"
       x2="-7881.895"
       y2="-758.99402"
       id="linearGradient5348"
       xlink:href="#SVGID_3_"
       gradientUnits="userSpaceOnUse"
       gradientTransform="matrix(0.4226,-0.9063,0.9063,0.4226,4226.9761,-6584.5938)" />
    <linearGradient
       x1="-8238.3281"
       y1="-818.15222"
       x2="-7698.647"
       y2="-818.15222"
       id="linearGradient5350"
       xlink:href="#SVGID_4_"
       gradientUnits="userSpaceOnUse"
       gradientTransform="matrix(0.4226,-0.9063,0.9063,0.4226,4226.9761,-6584.5938)" />
    <linearGradient
       x1="-8198.9678"
       y1="-810.85059"
       x2="-7915.3501"
       y2="-810.85059"
       id="linearGradient5352"
       xlink:href="#SVGID_5_"
       gradientUnits="userSpaceOnUse"
       gradientTransform="matrix(0.4226,-0.9063,0.9063,0.4226,4226.9761,-6584.5938)" />
    <linearGradient
       x1="-8238.3281"
       y1="-762.29712"
       x2="-7698.647"
       y2="-762.29712"
       id="linearGradient5354"
       xlink:href="#SVGID_6_"
       gradientUnits="userSpaceOnUse"
       gradientTransform="matrix(0.4226,-0.9063,0.9063,0.4226,4226.9761,-6584.5938)" />
    <linearGradient
       x1="-8271.8057"
       y1="-765.07068"
       x2="-7732.125"
       y2="-765.07068"
       id="linearGradient5356"
       xlink:href="#SVGID_7_"
       gradientUnits="userSpaceOnUse"
       gradientTransform="matrix(0.4226,-0.9063,0.9063,0.4226,4226.9761,-6584.5938)" />
    <linearGradient
       x1="-8238.3281"
       y1="-745.68481"
       x2="-7698.647"
       y2="-745.68481"
       id="linearGradient5358"
       xlink:href="#SVGID_8_"
       gradientUnits="userSpaceOnUse"
       gradientTransform="matrix(0.4226,-0.9063,0.9063,0.4226,4226.9761,-6584.5938)" />
    <linearGradient
       x1="-8238.3281"
       y1="-747.58557"
       x2="-7698.647"
       y2="-747.58557"
       id="linearGradient5360"
       xlink:href="#SVGID_9_"
       gradientUnits="userSpaceOnUse"
       gradientTransform="matrix(0.4226,-0.9063,0.9063,0.4226,4226.9761,-6584.5938)" />
    <linearGradient
       x1="-7935.1431"
       y1="-747.9668"
       x2="-7815.856"
       y2="-747.9668"
       id="linearGradient5362"
       xlink:href="#SVGID_10_"
       gradientUnits="userSpaceOnUse"
       gradientTransform="matrix(0.4226,-0.9063,0.9063,0.4226,4226.9761,-6584.5938)" />
    <linearGradient
       x1="-7708.7969"
       y1="-803.36011"
       x2="-7633.1528"
       y2="-714.90741"
       id="linearGradient7396"
       xlink:href="#SVGID_1_"
       gradientUnits="userSpaceOnUse"
       gradientTransform="matrix(0.4226,-0.9063,0.9063,0.4226,4226.9761,-6584.5938)" />
    <linearGradient
       x1="-8268.6387"
       y1="-813.12323"
       x2="-7728.9585"
       y2="-813.12323"
       id="linearGradient7398"
       xlink:href="#SVGID_2_"
       gradientUnits="userSpaceOnUse"
       gradientTransform="matrix(0.4226,-0.9063,0.9063,0.4226,4226.9761,-6584.5938)" />
    <linearGradient
       x1="-8203.4922"
       y1="-758.99402"
       x2="-7881.895"
       y2="-758.99402"
       id="linearGradient7400"
       xlink:href="#SVGID_3_"
       gradientUnits="userSpaceOnUse"
       gradientTransform="matrix(0.4226,-0.9063,0.9063,0.4226,4226.9761,-6584.5938)" />
    <linearGradient
       x1="-8238.3281"
       y1="-818.15222"
       x2="-7698.647"
       y2="-818.15222"
       id="linearGradient7402"
       xlink:href="#SVGID_4_"
       gradientUnits="userSpaceOnUse"
       gradientTransform="matrix(0.4226,-0.9063,0.9063,0.4226,4226.9761,-6584.5938)" />
    <linearGradient
       x1="-8198.9678"
       y1="-810.85059"
       x2="-7915.3501"
       y2="-810.85059"
       id="linearGradient7404"
       xlink:href="#SVGID_5_"
       gradientUnits="userSpaceOnUse"
       gradientTransform="matrix(0.4226,-0.9063,0.9063,0.4226,4226.9761,-6584.5938)" />
    <linearGradient
       x1="-8238.3281"
       y1="-762.29712"
       x2="-7698.647"
       y2="-762.29712"
       id="linearGradient7406"
       xlink:href="#SVGID_6_"
       gradientUnits="userSpaceOnUse"
       gradientTransform="matrix(0.4226,-0.9063,0.9063,0.4226,4226.9761,-6584.5938)" />
    <linearGradient
       x1="-8271.8057"
       y1="-765.07068"
       x2="-7732.125"
       y2="-765.07068"
       id="linearGradient7408"
       xlink:href="#SVGID_7_"
       gradientUnits="userSpaceOnUse"
       gradientTransform="matrix(0.4226,-0.9063,0.9063,0.4226,4226.9761,-6584.5938)" />
    <linearGradient
       x1="-8238.3281"
       y1="-745.68481"
       x2="-7698.647"
       y2="-745.68481"
       id="linearGradient7410"
       xlink:href="#SVGID_8_"
       gradientUnits="userSpaceOnUse"
       gradientTransform="matrix(0.4226,-0.9063,0.9063,0.4226,4226.9761,-6584.5938)" />
    <linearGradient
       x1="-8238.3281"
       y1="-747.58557"
       x2="-7698.647"
       y2="-747.58557"
       id="linearGradient7412"
       xlink:href="#SVGID_9_"
       gradientUnits="userSpaceOnUse"
       gradientTransform="matrix(0.4226,-0.9063,0.9063,0.4226,4226.9761,-6584.5938)" />
    <linearGradient
       x1="-7935.1431"
       y1="-747.9668"
       x2="-7815.856"
       y2="-747.9668"
       id="linearGradient7414"
       xlink:href="#SVGID_10_"
       gradientUnits="userSpaceOnUse"
       gradientTransform="matrix(0.4226,-0.9063,0.9063,0.4226,4226.9761,-6584.5938)" />
  </defs>
  <text
     x="199.61313"
     y="196.18768"
     id="text11870"
     xml:space="preserve"
     style="font-style:italic;font-variant:normal;font-weight:bold;font-stretch:normal;font-size:14px;line-height:0%;font-family:'Alte Haas Grotesk';-inkscape-font-specification:'Sans Italic';letter-spacing:0px;word-spacing:0px;fill:url(#linearGradient12648);fill-opacity:1;stroke:none"><tspan
       x="199.61313"
       y="196.18768"
       id="tspan11872"
       style="fill:url(#linearGradient12648);fill-opacity:1" /></text>
  <g
     id="g8927">
    <g
       transform="matrix(0.09561334,-0.07017507,0.07017507,0.09561334,132.73733,36.368381)"
       id="g7248">
      <linearGradient
         x1="-7708.7969"
         y1="-803.36011"
         x2="-7633.1528"
         y2="-714.90741"
         id="linearGradient7250"
         gradientUnits="userSpaceOnUse"
         gradientTransform="matrix(0.4226,-0.9063,0.9063,0.4226,4226.9761,-6584.5938)">
        <stop
           id="stop7252"
           style="stop-color:#f69923;stop-opacity:1"
           offset="0" />
        <stop
           id="stop7254"
           style="stop-color:#f79a23;stop-opacity:1"
           offset="0.3123" />
        <stop
           id="stop7256"
           style="stop-color:#e97826;stop-opacity:1"
           offset="0.83829999" />
      </linearGradient>
      <path
         d="m 267.1,19.6 c -8.4,5 -22.4,19 -39,39.3 l 15.3,28.9 c 10.7,-15.4 21.7,-29.2 32.7,-41 0.8,-0.9 1.3,-1.4 1.3,-1.4 -0.4,0.5 -0.9,0.9 -1.3,1.4 -3.6,3.9 -14.4,16.5 -30.7,41.6 15.7,-0.8 39.8,-4 59.5,-7.4 5.9,-32.8 -5.7,-47.8 -5.7,-47.8 0,0 -14.8,-23.9 -32.1,-13.6 z"
         id="path7258"
         style="fill:url(#linearGradient7396)" />
      <path
         d="m 241.1,184.4 c 0.1,0 0.2,0 0.3,-0.1 l -2.2,0.2 c -0.1,0.1 -0.3,0.1 -0.4,0.2 0.8,-0.1 1.6,-0.2 2.3,-0.3 z"
         id="path7260"
         style="fill:none" />
      <path
         d="m 225.5,236.1 c -1.2,0.3 -2.5,0.5 -3.8,0.7 1.3,-0.2 2.6,-0.4 3.8,-0.7 z"
         id="path7262"
         style="fill:none" />
      <path
         d="m 119.3,352.2 c 0.2,-0.4 0.3,-0.9 0.5,-1.3 3.4,-8.9 6.7,-17.5 10,-26 3.7,-9.4 7.4,-18.6 11,-27.5 3.8,-9.3 7.6,-18.4 11.3,-27.1 3.9,-9.2 7.7,-18 11.5,-26.5 3.1,-6.9 6.1,-13.6 9.1,-20.1 1,-2.2 2,-4.3 3,-6.4 2,-4.2 3.9,-8.3 5.8,-12.3 1.8,-3.7 3.5,-7.3 5.2,-10.9 0.6,-1.2 1.2,-2.4 1.7,-3.5 0.1,-0.2 0.2,-0.4 0.3,-0.6 l -1.9,0.2 -1.5,-2.9 c -0.1,0.3 -0.3,0.6 -0.4,0.9 -2.7,5.3 -5.4,10.7 -8,16.2 -1.5,3.1 -3,6.3 -4.6,9.5 -4.2,8.8 -8.3,17.6 -12.3,26.6 -4.1,9 -8.1,18.1 -12,27.1 -3.9,8.9 -7.6,17.8 -11.3,26.7 -3.7,8.9 -7.3,17.7 -10.8,26.5 -3.7,9.2 -7.3,18.3 -10.7,27.3 -0.8,2 -1.6,4.1 -2.3,6.1 -2.8,7.3 -5.5,14.4 -8.1,21.5 l 2.4,4.7 2.1,-0.2 c 0.1,-0.2 0.2,-0.4 0.2,-0.6 3.1,-9.5 6.5,-18.6 9.8,-27.4 z"
         id="path7264"
         style="fill:none" />
      <path
         d="m 220.7,236.9 0,0 c 0,0 0,0 0,0 0,0 0,0 0,0 z"
         id="path7266"
         style="fill:none" />
      <path
         d="m 215.6,262.2 c -2,0.4 -4,0.7 -6,1 0,0 0,0 0,0 1,-0.1 2.1,-0.3 3.1,-0.5 1,-0.1 2,-0.3 2.9,-0.5 z"
         id="path7268"
         style="fill:#be202e" />
      <path
         d="m 215.6,262.2 c -2,0.4 -4,0.7 -6,1 0,0 0,0 0,0 1,-0.1 2.1,-0.3 3.1,-0.5 1,-0.1 2,-0.3 2.9,-0.5 z"
         id="path7270"
         style="opacity:0.35;fill:#be202e" />
      <path
         d="m 220.8,236.9 c 0,0 0,0 0,0 -0.1,0 -0.1,0 0,0 0.3,0 0.6,-0.1 0.9,-0.1 1.3,-0.2 2.6,-0.4 3.8,-0.7 -1.5,0.3 -3.1,0.5 -4.7,0.8 l 0,0 0,0 z"
         id="path7272"
         style="fill:#be202e" />
      <path
         d="m 220.8,236.9 c 0,0 0,0 0,0 -0.1,0 -0.1,0 0,0 0.3,0 0.6,-0.1 0.9,-0.1 1.3,-0.2 2.6,-0.4 3.8,-0.7 -1.5,0.3 -3.1,0.5 -4.7,0.8 l 0,0 0,0 z"
         id="path7274"
         style="opacity:0.35;fill:#be202e" />
      <linearGradient
         x1="-8268.6387"
         y1="-813.12323"
         x2="-7728.9585"
         y2="-813.12323"
         id="linearGradient7276"
         gradientUnits="userSpaceOnUse"
         gradientTransform="matrix(0.4226,-0.9063,0.9063,0.4226,4226.9761,-6584.5938)">
        <stop
           id="stop7278"
           style="stop-color:#9e2064;stop-opacity:1"
           offset="0.3233" />
        <stop
           id="stop7280"
           style="stop-color:#c92037;stop-opacity:1"
           offset="0.63020003" />
        <stop
           id="stop7282"
           style="stop-color:#cd2335;stop-opacity:1"
           offset="0.75139999" />
        <stop
           id="stop7284"
           style="stop-color:#e97826;stop-opacity:1"
           offset="1" />
      </linearGradient>
      <path
         d="m 198.2,162.4 c 4.7,-8.7 9.4,-17.2 14.1,-25.5 4.9,-8.6 9.9,-16.9 15,-25 0.3,-0.5 0.6,-1 0.9,-1.4 5,-7.9 10,-15.5 15.1,-22.8 L 228,58.9 c -1.1,1.4 -2.3,2.8 -3.5,4.3 -4.4,5.5 -9,11.4 -13.7,17.7 -5.3,7.1 -10.7,14.6 -16.3,22.5 -5.1,7.3 -10.3,15 -15.5,22.9 -4.4,6.8 -8.8,13.7 -13.2,20.8 -0.2,0.3 -0.3,0.5 -0.5,0.8 l 19.9,39.3 c 4.4,-8.3 8.7,-16.6 13,-24.8 z"
         id="path7286"
         style="fill:url(#linearGradient7398)" />
      <linearGradient
         x1="-8203.4922"
         y1="-758.99402"
         x2="-7881.895"
         y2="-758.99402"
         id="linearGradient7288"
         gradientUnits="userSpaceOnUse"
         gradientTransform="matrix(0.4226,-0.9063,0.9063,0.4226,4226.9761,-6584.5938)">
        <stop
           id="stop7290"
           style="stop-color:#282662;stop-opacity:1"
           offset="0" />
        <stop
           id="stop7292"
           style="stop-color:#662e8d;stop-opacity:1"
           offset="0.0954839" />
        <stop
           id="stop7294"
           style="stop-color:#9f2064;stop-opacity:1"
           offset="0.78820002" />
        <stop
           id="stop7296"
           style="stop-color:#cd2032;stop-opacity:1"
           offset="0.94870001" />
      </linearGradient>
      <path
         d="m 107.5,384.1 c -2.6,7.2 -5.3,14.6 -7.9,22.2 0,0.1 -0.1,0.2 -0.1,0.3 -0.4,1.1 -0.8,2.1 -1.1,3.2 -1.8,5.1 -3.3,9.7 -6.9,20.1 5.9,2.7 10.6,9.7 15,17.7 -0.5,-8.3 -3.9,-16.1 -10.4,-22.1 28.9,1.3 53.9,-6 66.7,-27.2 1.1,-1.9 2.2,-3.9 3.2,-6 -5.9,7.4 -13.1,10.6 -26.8,9.8 0,0 -0.1,0 -0.1,0 0,0 0.1,0 0.1,0 20.1,-9 30.2,-17.7 39.1,-32 2.1,-3.4 4.2,-7.1 6.3,-11.2 -17.6,18.1 -38,23.2 -59.5,19.3 L 109,380 c -0.5,1.4 -1,2.7 -1.5,4.1 z"
         id="path7298"
         style="fill:url(#linearGradient7400)" />
      <linearGradient
         x1="-8238.3281"
         y1="-818.15222"
         x2="-7698.647"
         y2="-818.15222"
         id="linearGradient7300"
         gradientUnits="userSpaceOnUse"
         gradientTransform="matrix(0.4226,-0.9063,0.9063,0.4226,4226.9761,-6584.5938)">
        <stop
           id="stop7302"
           style="stop-color:#9e2064;stop-opacity:1"
           offset="0.3233" />
        <stop
           id="stop7304"
           style="stop-color:#c92037;stop-opacity:1"
           offset="0.63020003" />
        <stop
           id="stop7306"
           style="stop-color:#cd2335;stop-opacity:1"
           offset="0.75139999" />
        <stop
           id="stop7308"
           style="stop-color:#e97826;stop-opacity:1"
           offset="1" />
      </linearGradient>
      <path
         d="m 115,348 c 3.5,-9 7.1,-18.1 10.7,-27.3 3.5,-8.8 7.1,-17.6 10.8,-26.5 3.7,-8.9 7.5,-17.8 11.3,-26.7 3.9,-9.1 7.9,-18.1 12,-27.1 4,-8.9 8.2,-17.8 12.3,-26.6 1.5,-3.2 3,-6.3 4.6,-9.5 2.6,-5.4 5.3,-10.8 8,-16.2 0.1,-0.3 0.3,-0.6 0.4,-0.9 L 165.4,148 c -0.3,0.5 -0.6,1.1 -1,1.6 -4.6,7.6 -9.3,15.3 -13.8,23.2 -4.6,8 -9.1,16.1 -13.5,24.4 -3.7,7 -7.3,14 -10.9,21.1 -0.7,1.4 -1.4,2.9 -2.1,4.3 -4.3,8.9 -8.3,17.6 -11.8,25.9 -4,9.4 -7.5,18.4 -10.6,26.9 -2,5.6 -3.9,11 -5.6,16.2 -1.4,4.4 -2.7,8.9 -4,13.3 -3,10.4 -5.5,20.8 -7.6,31.2 l 20,39.5 c 2.6,-7.1 5.4,-14.2 8.1,-21.5 0.8,-2 1.6,-4 2.4,-6.1 z"
         id="path7310"
         style="fill:url(#linearGradient7402)" />
      <linearGradient
         x1="-8198.9678"
         y1="-810.85059"
         x2="-7915.3501"
         y2="-810.85059"
         id="linearGradient7312"
         gradientUnits="userSpaceOnUse"
         gradientTransform="matrix(0.4226,-0.9063,0.9063,0.4226,4226.9761,-6584.5938)">
        <stop
           id="stop7314"
           style="stop-color:#282662;stop-opacity:1"
           offset="0" />
        <stop
           id="stop7316"
           style="stop-color:#662e8d;stop-opacity:1"
           offset="0.0954839" />
        <stop
           id="stop7318"
           style="stop-color:#9f2064;stop-opacity:1"
           offset="0.78820002" />
        <stop
           id="stop7320"
           style="stop-color:#cd2032;stop-opacity:1"
           offset="0.94870001" />
      </linearGradient>
      <path
         d="m 84.2,337.5 c -2.5,12.6 -4.3,25.2 -5.2,37.8 0,0.4 -0.1,0.9 -0.1,1.3 -6.2,-10 -23,-19.8 -22.9,-19.7 12,17.4 21.1,34.6 22.4,51.5 -6.4,1.3 -15.2,-0.6 -25.3,-4.3 10.6,9.7 18.5,12.4 21.6,13.1 -9.7,0.6 -19.8,7.3 -30,15 14.9,-6.1 27,-8.5 35.6,-6.5 -13.7,38.7 -27.4,81.5 -41.1,126.9 4.2,-1.2 6.7,-4.1 8.1,-7.9 2.4,-8.2 18.7,-62.2 44.1,-133.1 0.7,-2 1.5,-4 2.2,-6.1 0.2,-0.6 0.4,-1.1 0.6,-1.7 2.7,-7.4 5.5,-15 8.4,-22.8 0.7,-1.8 1.3,-3.5 2,-5.3 0,0 0,-0.1 0,-0.1 l -20,-39.5 c -0.2,0.5 -0.3,0.9 -0.4,1.4 z"
         id="path7322"
         style="fill:url(#linearGradient7404)" />
      <linearGradient
         x1="-8238.3281"
         y1="-762.29712"
         x2="-7698.647"
         y2="-762.29712"
         id="linearGradient7324"
         gradientUnits="userSpaceOnUse"
         gradientTransform="matrix(0.4226,-0.9063,0.9063,0.4226,4226.9761,-6584.5938)">
        <stop
           id="stop7326"
           style="stop-color:#9e2064;stop-opacity:1"
           offset="0.3233" />
        <stop
           id="stop7328"
           style="stop-color:#c92037;stop-opacity:1"
           offset="0.63020003" />
        <stop
           id="stop7330"
           style="stop-color:#cd2335;stop-opacity:1"
           offset="0.75139999" />
        <stop
           id="stop7332"
           style="stop-color:#e97826;stop-opacity:1"
           offset="1" />
      </linearGradient>
      <path
         d="m 188.4,190.6 c -0.6,1.2 -1.1,2.3 -1.7,3.5 -1.7,3.6 -3.5,7.2 -5.2,10.9 -1.9,4 -3.8,8.1 -5.8,12.3 -1,2.1 -2,4.2 -3,6.4 -3,6.5 -6,13.2 -9.1,20.1 -3.8,8.5 -7.6,17.3 -11.5,26.5 -3.7,8.7 -7.5,17.8 -11.3,27.1 -3.6,8.9 -7.3,18 -11,27.5 -3.3,8.4 -6.6,17.1 -10,26 -0.2,0.4 -0.3,0.9 -0.5,1.3 -3.3,8.8 -6.7,17.9 -10.1,27.2 -0.1,0.2 -0.2,0.4 -0.2,0.6 l 16.1,-1.8 c -0.3,-0.1 -0.6,-0.1 -1,-0.2 19.3,-2.4 44.9,-16.8 61.4,-34.6 7.6,-8.2 14.5,-17.8 20.9,-29.1 4.8,-8.4 9.2,-17.7 13.5,-28.1 3.7,-9 7.3,-18.8 10.7,-29.4 -4.4,2.3 -9.5,4 -15.1,5.2 -1,0.2 -2,0.4 -3,0.6 -1,0.2 -2,0.3 -3.1,0.5 l 0,0 0,0 c 0,0 0,0 0,0 18,-6.9 29.3,-20.2 37.5,-36.6 -4.7,3.2 -12.4,7.4 -21.6,9.5 -1.2,0.3 -2.5,0.5 -3.8,0.7 -0.3,0 -0.6,0.1 -1,0.1 l 0,0 0,0 c 0,0 0,0 0,0 0,0 0,0 0,0 l 0,0 c 6.2,-2.6 11.5,-5.5 16.1,-9 1,-0.7 1.9,-1.5 2.8,-2.3 1.4,-1.2 2.7,-2.5 4,-3.8 0.8,-0.9 1.6,-1.7 2.4,-2.6 1.8,-2.1 3.5,-4.4 5,-6.9 0.5,-0.8 1,-1.5 1.4,-2.3 0.6,-1.2 1.2,-2.3 1.7,-3.4 2.5,-5 4.5,-9.5 6.1,-13.5 0.8,-2 1.5,-3.8 2.1,-5.5 0.2,-0.7 0.5,-1.3 0.7,-2 0.6,-1.9 1.2,-3.6 1.6,-5.1 0.6,-2.2 1,-4 1.2,-5.3 l 0,0 0,0 c -0.6,0.5 -1.3,1 -2.1,1.4 -5.4,3.2 -14.7,6.2 -22.2,7.6 l 14.8,-1.6 -14.8,1.6 c -0.1,0 -0.2,0 -0.3,0.1 -0.7,0.1 -1.5,0.2 -2.3,0.4 0.1,-0.1 0.3,-0.1 0.4,-0.2 l -50.6,5.5 c 0.1,0.4 0,0.6 -0.1,0.7 z"
         id="path7334"
         style="fill:url(#linearGradient7406)" />
      <linearGradient
         x1="-8271.8057"
         y1="-765.07068"
         x2="-7732.125"
         y2="-765.07068"
         id="linearGradient7336"
         gradientUnits="userSpaceOnUse"
         gradientTransform="matrix(0.4226,-0.9063,0.9063,0.4226,4226.9761,-6584.5938)">
        <stop
           id="stop7338"
           style="stop-color:#9e2064;stop-opacity:1"
           offset="0.3233" />
        <stop
           id="stop7340"
           style="stop-color:#c92037;stop-opacity:1"
           offset="0.63020003" />
        <stop
           id="stop7342"
           style="stop-color:#cd2335;stop-opacity:1"
           offset="0.75139999" />
        <stop
           id="stop7344"
           style="stop-color:#e97826;stop-opacity:1"
           offset="1" />
      </linearGradient>
      <path
         d="m 245.4,88.4 c -4.5,6.9 -9.4,14.8 -14.7,23.6 -0.3,0.5 -0.6,0.9 -0.8,1.4 -4.6,7.7 -9.4,16.1 -14.5,25.4 -4.4,8 -9,16.5 -13.8,25.8 -4.2,8 -8.4,16.5 -12.9,25.5 l 50.6,-5.5 c 14.7,-6.8 21.3,-12.9 27.7,-21.8 1.7,-2.4 3.4,-5 5.1,-7.7 5.2,-8.1 10.3,-17 14.8,-25.9 4.4,-8.6 8.3,-17.1 11.2,-24.7 1.9,-4.9 3.4,-9.4 4.5,-13.4 0.9,-3.5 1.6,-6.8 2.2,-10 -19.6,3.3 -43.7,6.5 -59.4,7.3 z"
         id="path7346"
         style="fill:url(#linearGradient7408)" />
      <path
         d="m 212.7,262.8 c -1,0.2 -2,0.3 -3.1,0.5 l 0,0 c 1,-0.2 2,-0.4 3.1,-0.5 z"
         id="path7348"
         style="fill:#be202e" />
      <path
         d="m 212.7,262.8 c -1,0.2 -2,0.3 -3.1,0.5 l 0,0 c 1,-0.2 2,-0.4 3.1,-0.5 z"
         id="path7350"
         style="opacity:0.35;fill:#be202e" />
      <linearGradient
         x1="-8238.3281"
         y1="-745.68481"
         x2="-7698.647"
         y2="-745.68481"
         id="linearGradient7352"
         gradientUnits="userSpaceOnUse"
         gradientTransform="matrix(0.4226,-0.9063,0.9063,0.4226,4226.9761,-6584.5938)">
        <stop
           id="stop7354"
           style="stop-color:#9e2064;stop-opacity:1"
           offset="0.3233" />
        <stop
           id="stop7356"
           style="stop-color:#c92037;stop-opacity:1"
           offset="0.63020003" />
        <stop
           id="stop7358"
           style="stop-color:#cd2335;stop-opacity:1"
           offset="0.75139999" />
        <stop
           id="stop7360"
           style="stop-color:#e97826;stop-opacity:1"
           offset="1" />
      </linearGradient>
      <path
         d="m 212.7,262.8 c -1,0.2 -2,0.3 -3.1,0.5 l 0,0 c 1,-0.2 2,-0.4 3.1,-0.5 z"
         id="path7362"
         style="fill:url(#linearGradient7410)" />
      <path
         d="m 220.7,236.9 c 0.3,0 0.6,-0.1 1,-0.1 -0.3,0 -0.6,0.1 -1,0.1 l 0,0 z"
         id="path7364"
         style="fill:#be202e" />
      <path
         d="m 220.7,236.9 c 0.3,0 0.6,-0.1 1,-0.1 -0.3,0 -0.6,0.1 -1,0.1 l 0,0 z"
         id="path7366"
         style="opacity:0.35;fill:#be202e" />
      <linearGradient
         x1="-8238.3281"
         y1="-747.58557"
         x2="-7698.647"
         y2="-747.58557"
         id="linearGradient7368"
         gradientUnits="userSpaceOnUse"
         gradientTransform="matrix(0.4226,-0.9063,0.9063,0.4226,4226.9761,-6584.5938)">
        <stop
           id="stop7370"
           style="stop-color:#9e2064;stop-opacity:1"
           offset="0.3233" />
        <stop
           id="stop7372"
           style="stop-color:#c92037;stop-opacity:1"
           offset="0.63020003" />
        <stop
           id="stop7374"
           style="stop-color:#cd2335;stop-opacity:1"
           offset="0.75139999" />
        <stop
           id="stop7376"
           style="stop-color:#e97826;stop-opacity:1"
           offset="1" />
      </linearGradient>
      <path
         d="m 220.7,236.9 c 0.3,0 0.6,-0.1 1,-0.1 -0.3,0 -0.6,0.1 -1,0.1 l 0,0 z"
         id="path7378"
         style="fill:url(#linearGradient7412)" />
      <path
         d="m 220.8,236.9 c 0,0 0,0 0,0 l 0,0 0,0 0,0 c 0,0 0,0 0,0 z"
         id="path7380"
         style="fill:#be202e" />
      <path
         d="m 220.8,236.9 c 0,0 0,0 0,0 l 0,0 0,0 0,0 c 0,0 0,0 0,0 z"
         id="path7382"
         style="opacity:0.35;fill:#be202e" />
      <linearGradient
         x1="-7935.1431"
         y1="-747.9668"
         x2="-7815.856"
         y2="-747.9668"
         id="linearGradient7384"
         gradientUnits="userSpaceOnUse"
         gradientTransform="matrix(0.4226,-0.9063,0.9063,0.4226,4226.9761,-6584.5938)">
        <stop
           id="stop7386"
           style="stop-color:#9e2064;stop-opacity:1"
           offset="0.3233" />
        <stop
           id="stop7388"
           style="stop-color:#c92037;stop-opacity:1"
           offset="0.63020003" />
        <stop
           id="stop7390"
           style="stop-color:#cd2335;stop-opacity:1"
           offset="0.75139999" />
        <stop
           id="stop7392"
           style="stop-color:#e97826;stop-opacity:1"
           offset="1" />
      </linearGradient>
      <path
         d="m 220.8,236.9 c 0,0 0,0 0,0 l 0,0 0,0 0,0 c 0,0 0,0 0,0 z"
         id="path7394"
         style="fill:url(#linearGradient7414)" />
    </g>
    <g
       style="font-style:italic;font-variant:normal;font-weight:bold;font-stretch:normal;font-size:100px;line-height:125%;font-family:'Alte Haas Grotesk';-inkscape-font-specification:'Sans Italic';letter-spacing:0px;word-spacing:0px;fill:#000000;fill-opacity:1;stroke:none"
       id="text5492">
      <path
         d="m 23.541406,2.7166473 13.1,0 q 1.6,0 3.2,0 1.7,0 2.4,0.7 0.6,0.5 0.7,1.5 0.1,0.9 0.3,1.8 0.2,1.6 0.4,3.2999997 0.3,1.6 0.5,3.3 1.1,6.3 1.8,12.8 0.8,6.5 1.9,12.9 0.4,2 0.6,4.1 0.2,2.1 0.6,4.1 0.1,0.5 0.2,1 0.1,0.5 0.5,0.8 0.2,0.1 0.3,0.2 0.2,0.1 0.5,-0.1 0.8,-0.2 1.3,-1.2 0.5,-1 1,-1.8 1.2,-2.3 2.3,-4.5 1.1,-2.3 2.4,-4.6 3.2,-6.1 6.4,-12.2 3.3,-6.2 6.5,-12.4 0.8,-1.6 1.6,-3.0999997 0.9,-1.6 1.7,-3.2 0.4,-0.8 0.9,-1.6 0.5,-0.8 1.4,-1.3 0.7,-0.5 1.6,-0.5 1,0 2,0 l 6.5,0 6.9,0 q 0.9,0 1.8,0 1,0 1.4,0.4 1,0.6 0.6,2.3 -0.3,1.6 -0.6,3.3 l -3,14.9999997 -7.5,37.2 -1.7,8.7 q -0.2,1.1 -0.5,2.2 -0.3,1 -1,1.5 -0.7,0.5 -1.6,0.6 -0.9,0 -2,0 l -4.8,0 -2.7,0 q -0.7,-0.2 -1.3,-0.3 -0.5,-0.1 -0.8,-0.7 -0.3,-0.5 -0.2,-1.3 0.2,-0.8 0.4,-1.7 l 1,-5.1 5.2,-25.7 q 0.2,-1.4 0.4,-2.6 0.3,-1.3 0.5,-2.6 0.2,-0.8 0.4,-1.6 0.2,-0.9 0.2,-1.7 -0.1,-0.7 0,-1.5 0.2,-0.8 -0.3,-1 -0.3,-0.1 -0.5,0.1 -0.2,0.2 -0.3,0.3 -0.5,0.4 -0.9,1 -0.3,0.5 -0.6,1 -0.9,1.5 -1.8,3.1 -0.8,1.6 -1.8,3.2 -0.3,0.6 -0.6,1.2 -0.2,0.6 -0.6,1.2 -0.8,1.3 -1.5,2.6 -0.6,1.3 -1.4,2.6 -0.2,0.3 -0.3,0.7 -0.1,0.3 -0.3,0.6 -0.6,0.9 -1.1,1.9 -0.4,1 -1.1,2 -0.6,0.9 -1.1,1.9 -0.4,1 -1,2 -1.8,2.9 -3.3,5.9 -1.5,2.9 -3.1,5.8 -0.3,0.3 -0.4,0.6 0,0.3 -0.3,0.6 -0.7,1.1 -1.3,2.3 -0.5,1.1 -1.2,2.2 -0.4,0.7 -0.8,1.3 -0.4,0.6 -0.9,1 -0.6,0.4 -1.1,0.5 -0.5,0 -1.3,0.2 l -2.3,0 q -0.7,0 -1.7,0.1 -0.9,0 -1.9,0 -0.9,0 -1.7,-0.1 -0.8,-0.1 -1.1,-0.4 -0.7,-0.5 -0.9,-1.1 -0.1,-0.7 -0.4,-1.6 -0.2,-1.2 -0.3,-2.4 -0.1,-1.3 -0.4,-2.5 l -0.1,-0.9 q -0.3,-1.2 -0.4,-2.5 -0.1,-1.4 -0.4,-2.6 0,-0.3 0,-0.5 0,-0.3 -0.1,-0.6 -0.3,-0.9 -0.4,-1.9 -0.1,-1 -0.3,-2 0,-0.2 0,-0.5 0,-0.3 -0.1,-0.5 -0.2,-1 -0.3,-2 0,-1 -0.3,-2 -0.4,-2 -0.7,-4.2 -0.2,-2.2 -0.6,-4.3 -0.4,-2.5 -0.7,-5.1 -0.2,-2.6 -0.9,-5 -0.2,-1.4 -0.6,-2.3 -0.2,-0.2 -0.4,-0.3 -0.1,-0.2 -0.4,0 -0.6,0.3 -0.8,1 -0.1,0.7 -0.4,1.4 -0.4,0.7 -0.5,1.5 -0.1,0.7 -0.2,1.5 -0.2,1.1 -0.5,2.2 -0.2,1.1 -0.5,2.2 l -5.3,26.6 -1,4.9 q -0.2,0.8 -0.4,1.6 -0.1,0.8 -0.6,1.3 -0.5,0.7 -1.7,0.9 -0.7,0.2 -1.5,0.2 -0.8,-0.1 -1.6,-0.1 l -5.2,0 q -1.1000002,0 -2.0000002,0 -0.9,-0.1 -1.4,-0.6 -0.5,-0.5 -0.4,-1.5 0.2,-1.1 0.4,-2.2 l 1.7,-8.8 7.5000002,-37.2 2.8,-13.9999997 q 0.1,-0.6 0.2,-1.4 0.2,-0.9 0.4,-1.7 0.2,-0.8 0.4,-1.5 0.3,-0.8 0.5,-1.2 0.6,-0.7 1.8,-1 0.3,-0.1 0.4,0 0.2,0 0.5,-0.1 z"
         style=""
         id="path4317" />
      <path
         d="m 143.06641,70.016647 q 0,1.1 -0.2,2.2 -0.2,1.1 -1.3,1.5 -0.7,0.3 -1.5,0.3 -0.8,0 -1.6,0 l -5.4,0 q -0.9,0 -1.8,0 -0.8,-0.1 -1.2,-0.5 -0.6,-0.4 -0.8,-1.1 -0.2,-0.8 -0.7,-1.3 -0.2,-0.2 -0.5,-0.3 -0.2,-0.2 -0.7,-0.1 -0.6,0.2 -1.1,0.5 -0.5,0.3 -1,0.5 -0.6,0.4 -1.3,0.7 -0.6,0.3 -1.3,0.6 -1.4,0.6 -2.9,1 -1.5,0.3 -3,0.7 -0.8,0.2 -1.5,0.2 -0.6,0.1 -1.3,0.2 -0.3,0 -0.6,0 -0.3,0.1 -0.6,0.1 l -1.1,0 q -1.1,0.2 -2,0 l -0.9,0 q -0.7,-0.2 -1.4,-0.2 -0.6,0.1 -1.2,-0.1 -0.9,-0.2 -1.8,-0.4 -0.9,-0.1 -1.6,-0.5 -2.7,-1.1 -4.400004,-2.8 -1.7,-1.8 -2.3,-4.7 -0.2,-0.7 -0.3,-1.5 0,-0.8 -0.1,-1.7 -0.1,-0.5 0,-1 0.2,-0.5 0.2,-1 0,-0.3 0.1,-1.2 0.2,-1 0.4,-1.4 0.4,-1 0.5,-1.7 0.5,-1.1 1,-2.2 0.6,-1.2 1.3,-2.1 2.200004,-2.9 4.700004,-4.4 2.5,-1.5 6.2,-2.6 1.4,-0.5 2.8,-0.7 1.4,-0.2 2.9,-0.5 0.8,-0.2 1.7,-0.2 1,-0.1 1.9,-0.3 0.7,-0.2 1.4,-0.1 0.7,0 1.6,-0.2 0.7,-0.2 1.4,-0.2 0.7,0 1.5,-0.2 2.2,-0.5 4,-0.8 1.9,-0.4 3.6,-1.8 1,-0.9 1.6,-2 0.1,-0.3 0.1,-0.5 0,-0.2 0.1,-0.4 0.2,-0.2 0.2,-0.6 0.1,-0.4 0.2,-0.6 0,-0.4 0,-0.8 0,-0.4 0,-0.7 -0.4,-3 -3.4,-4.1 -0.8,-0.3 -2.1,-0.4 -1.2,-0.2 -2.5,-0.1 -1.3,0 -2.6,0.2 -1.2,0.2 -2.1,0.5 -0.7,0.2 -1.3,0.6 -0.6,0.3 -1.2,0.7 -0.6,0.4 -1.3,1.1 -0.7,0.7 -1,1.3 -0.7,1 -1.2,1.9 -0.5,0.9 -1.7,1.2 -0.8,0.2 -1.7,0.2 -0.9,0 -1.8,0 l -3.8,0 q -0.5,0 -1.1,0.1 -0.5,0 -0.8,-0.1 l -0.9,0 q -0.2,-0.1 -0.5,-0.1 -0.3,0 -0.5,-0.2 -0.7,-0.2 -0.8,-1.3 0,-0.5 0.2,-1 0.2,-0.5 0.4,-0.9 0.5,-1.1 1,-2 0.6,-1 1.2,-1.8 0.4,-0.5 0.8,-1 0.4,-0.5 0.8,-1 1,-1.1 2.4,-2.1 0.3,-0.1 0.7,-0.5 0.6,-0.4 1,-0.7 0.5,-0.3 1.1,-0.6 1.9,-1.1 3.9,-1.7 2.1,-0.7 4.2,-1.3 1.3,-0.3 2.6,-0.4 1.3,-0.1 2.7,-0.4 0.4,-0.1 1.2,0 0.8,0.1 1.1,-0.1 4.1,-0.1 7.7,0.3 3.7,0.4 6.5,1.5 2.9,1.1 4.7,3 1.9,1.8 2.5,4.7 0.3,1.7 0,3.9 -0.3,2.2 -0.8,4.5 l -4.5,22.3 q -0.3,1.9 -0.7,3.9 -0.4,1.9 -0.3,3.5 0,0.3 -0.1,0.7 0,0.3 0,0.6 z m -11.6,-15.4 q 0.2,-0.5 0.3,-1.1 0.1,-0.7 0.1,-1.2 0,-0.6 0.1,-1.1 0.1,-0.5 -0.3,-0.8 -0.4,-0.4 -1.4,-0.4 -0.4,0.1 -0.7,0.2 -0.3,0 -0.8,0.1 -0.7,0.2 -1.5,0.3 -0.8,0.1 -1.7,0.3 -0.3,0.1 -0.9,0.1 -1.4,0.3 -2.7,0.4 -1.3,0.1 -2.6,0.5 -0.8,0.2 -1.6,0.4 -0.7,0.1 -1.4,0.4 -2.3,0.9 -4.1,2.7 -1.8,1.8 -2.1,5 -0.1,1.7 0.6,2.8 0.4,1.1 1.7,1.8 1.3,0.6 2.9,0.9 1.6,0.3 3.4,0.2 1.9,-0.2 3.6,-0.7 2.8,-0.8 4.6,-2.5 1.9,-1.8 3.2,-4.4 0.3,-0.7 0.5,-1.4 0.2,-0.8 0.6,-1.6 l 0.2,-0.9 z"
         style=""
         id="path4319" />
      <path
         d="m 161.28828,22.416647 7.3,0 q 1.1,0 2.1,0.1 1,0 1.6,0.4 1,0.7 1,2.6 0.1,1.8 0.4,3.2 0.4,3.3 0.7,6.8 0.3,3.4 0.7,6.8 0.4,2.4 0.6,4.9 0.2,2.5 0.6,4.8 0.1,0.9 0.2,1.9 0.2,1 1.3,1 0.3,-0.2 0.4,-0.2 0.1,-0.1 0.3,-0.3 0.4,-0.5 0.7,-1 0.3,-0.5 0.6,-1.1 0.8,-1.1 1.2,-2.3 0.5,-1.2 1.2,-2.3 2.2,-4.2 4.3,-8.4 2.1,-4.3 4.3,-8.5 0.8,-1.2 1.3,-2.4 0.6,-1.3 1.2,-2.4 0.4,-0.8 0.8,-1.6 0.5,-0.8 1.2,-1.3 0.3,-0.2 1.4,-0.6 0.6,-0.2 1.3,-0.1 0.7,0 1.3,0 l 4.9,0 q 1.1,0 2,0.1 1,0 1.4,0.5 0.5,0.5 0.1,1.5 -0.3,0.9 -0.6,1.5 -0.8,1.4 -1.6,3 -0.8,1.5 -1.6,2.9 -0.4,0.7 -0.7,1.4 -0.3,0.6 -0.6,1.2 -0.7,1.1 -1.3,2.2 -0.6,1.1 -1.2,2.2 -0.1,0.3 -0.3,0.7 -0.1,0.3 -0.3,0.6 -0.9,1.5 -1.7,3.1 -0.8,1.5 -1.6,3 -1.7,3 -3.3,6.2 -1.6,3.1 -3.4,6.1 -0.8,1.4 -1.5,2.8 -0.6,1.3 -1.4,2.7 -0.3,0.5 -0.5,0.9 -0.2,0.3 -0.5,0.8 -0.6,1.1 -1.2,2.3 -0.5,1.1 -1.2,2.2 -0.7,1.1 -1.3,2.1 -0.6,0.9 -1.7,1.3 -0.9,0.3 -1.8,0.3 -0.9,-0.1 -1.8,-0.1 l -6.5,0 q -1.1,0 -2.2,0 -1,0 -1.7,-0.4 -0.6,-0.5 -0.8,-1.2 -0.1,-0.8 -0.2,-1.7 -0.3,-1.2 -0.5,-2.5 -0.1,-1.3 -0.3,-2.5 -0.1,-0.4 -0.1,-0.7 0,-0.4 -0.1,-0.9 -0.3,-1.2 -0.4,-2.5 -0.1,-1.3 -0.4,-2.6 -0.1,-0.5 -0.1,-0.9 0,-0.5 -0.1,-1 -0.2,-0.9 -0.3,-1.8 -0.1,-1 -0.3,-1.9 -0.1,-0.3 -0.1,-0.6 0.1,-0.4 0,-0.7 -0.2,-0.9 -0.3,-1.8 -0.1,-0.9 -0.3,-1.9 -0.4,-2.3 -0.7,-4.7 -0.3,-2.5 -0.6,-4.9 -0.6,-2.7 -0.9,-5.4 -0.2,-2.8 -0.7,-5.5 l -0.3,-2.7 q -0.1,-0.3 -0.1,-0.7 0.1,-0.5 0.4,-0.9 0.4,-0.7 1.6,-1 0.5,0 0.7,-0.1 z"
         style="fill:none;stroke:none"
         id="path4321" />
      <path
         d="m 259.04141,47.716647 q 0,0.8 -0.4,1.8 -0.4,1 -1,1.3 -0.5,0.4 -1.5,0.6 -1,0.1 -2.2,0.2 -1.1,0 -2.3,0 -1.1,-0.1 -2,-0.1 l -24.4,0 q -0.7,0 -1.4,0 -0.6,0 -1.1,0.2 -0.9,0.4 -1.2,0.8 -0.2,0.2 -0.6,0.8 -0.3,0.5 -0.3,1 0.1,0.6 0,1.2 0,0.5 0.1,1.1 0.3,2.4 1.1,4 0.9,1.5 2.6,2.7 0.7,0.5 1.5,0.7 0.9,0.1 1.7,0.4 0.8,0.2 2.1,0.3 1.4,0.1 2.5,-0.1 l 0.9,0 q 1,-0.2 1.9,-0.4 0.9,-0.3 1.8,-0.6 1.1,-0.5 2.5,-1.3 1.4,-0.8 2.2,-1.6 0.6,-0.7 1.3,-1.3 0.7,-0.7 1.5,-1 1.1,-0.5 2.6,-0.4 1.6,0 2.9,0 0.6,0 1.2,0 0.7,-0.1 1.2,0.1 l 1,0 q 0.9,0.2 1.3,0.5 0.3,0.2 0.2,0.9 0,0.7 -0.3,1.2 -0.8,1.4 -1.7,2.5 -0.8,1.1 -1.8,2.2 -2.8,3.3 -6,5.3 -3.2,2 -7.7,3.4 -1.2,0.4 -2.3,0.5 -1.1,0.1 -2.4,0.4 -0.4,0.1 -0.9,0 -0.4,0 -0.8,0.1 l -1.1,0 q -0.6,0.2 -1.2,0.1 -0.6,0 -1.1,-0.1 -0.8,-0.1 -1.4,0 -0.6,0.1 -1.3,-0.1 -0.5,-0.2 -1.1,-0.2 -0.6,0 -1,-0.2 -1.1,-0.2 -2.2,-0.5 -1,-0.2 -1.8,-0.7 -1,-0.4 -1.9,-0.7 -0.9,-0.4 -1.6,-0.9 -2.8,-2 -4.8,-4.6 -1.9,-2.7 -2.8,-6.2 -0.3,-1.1 -0.4,-2.2 0,-1.2 -0.3,-2.4 0,-0.4 0,-0.7 0.1,-0.4 0.1,-0.8 -0.1,-1.2 0,-2.6 0.2,-1.4 0.4,-2.8 0.1,-0.5 0.1,-1.1 0.1,-0.6 0.3,-1.1 l 0.3,-1.2 0.8,-2.4 q 0.7,-1.7 1.3,-3.3 0.6,-1.6 1.5,-3 6.4,-10.4 17.6,-14.7 1.5,-0.6 3,-0.8 1.5,-0.3 3.2,-0.7 0.8,-0.1 1.5,-0.1 0.7,0 1.5,-0.1 5.1,-0.1 8.5,1.2 3.4,1.2 5.9,3.2 0.8,0.6 1.5,1.4 0.8,0.7 1.3,1.5 0.2,0.5 0.7,0.8 0.6,1.1 1,2.3 0.5,1.1 1.1,2.3 0.3,0.9 0.4,1.9 0.2,0.9 0.4,2 0.2,1.3 0.2,2.7 0.1,1.4 0.2,2.8 0,0.8 -0.3,1.8 -0.2,0.9 -0.1,1.7 l -0.2,1.1 z m -13.9,-5.9 q 0.9,-1 0.6,-2.4 -0.2,-1.5 -0.3,-2.2 -0.9,-2.7 -2.9,-4.1 -2,-1.5 -6.1,-1.6 -0.3,0.2 -0.7,0.1 -0.4,-0.1 -0.7,0 -0.6,0.2 -1.2,0.3 -0.6,0 -1.1,0.2 -4.7,1.4 -7.6,5.5 -0.3,0.4 -0.7,1.1 -0.4,0.6 -0.6,1.3 -0.2,0.6 -0.2,1.2 0,0.6 0.5,1 0.7,0.5 2.1,0.5 1.4,0 2.7,0 l 11.1,0 q 1.4,0 2.9,0 1.6,-0.1 2.2,-0.9 z"
         style=""
         id="path4323" />
      <path
         d="m 302.16328,21.116647 q 6,-0.2 9.6,1.7 3.7,1.9 5.2,5.6 0.5,1.1 0.6,2.4 0.2,1.2 0.3,2.5 0.1,0.8 0,1.5 -0.1,0.7 0,1.4 -0.2,0.6 -0.1,0.8 -0.1,1.4 -0.4,2.9 -0.3,1.5 -0.6,2.9 l -1.7,8.9 -3.3,16.2 q -0.4,1.9 -0.8,3.7 -0.4,1.7 -1.9,2.2 -0.6,0.2 -1.4,0.2 -0.8,0 -1.6,0 l -5.4,0 q -1.2,0 -2.1,-0.1 -0.9,-0.2 -1.3,-0.9 -0.3,-0.6 -0.2,-1.5 0.2,-1 0.4,-2.1 l 1.4,-7 3,-14.9 q 0.7,-3.7 1,-6.8 0.4,-3.2 -0.7,-5.4 -1,-2 -3.5,-2.8 -0.5,-0.2 -1.1,-0.2 -0.5,0 -1,-0.2 -0.5,-0.1 -1.3,0 -0.7,0 -1.1,0.1 -0.5,0.1 -0.8,0.1 -0.3,0 -0.6,0.1 -2.4,0.6 -4,1.6 -3.7,2.3 -5.2,6.7 -1.4,4.4 -2.5,9.9 l -2.5,12.5 -1.2,6.1 q -0.2,0.9 -0.4,1.8 -0.2,0.9 -0.6,1.5 -0.7,1.1 -1.9,1.3 -1.1,0.2 -2.7,0.2 l -5,0 q -1.1,0 -2.2,-0.1 -1.1,-0.1 -1.4,-0.7 -0.6,-0.9 -0.2,-2.6 0.4,-1.7 0.7,-3.2 l 2.7,-13.6 4.4,-22 1.1,-5.1 q 0.2,-1.1 0.4,-2 0.2,-0.9 0.9,-1.5 0.2,-0.3 0.7,-0.4 0.5,-0.2 1,-0.3 l 0.5,0 q 0.5,-0.1 1,-0.1 0.6,0 1.1,0 l 4.2,0 q 0.8,0 1.5,0.1 0.8,0 1.4,0.2 0.6,0.3 0.7,0.9 0.2,0.6 0.2,1.4 0,0.4 -0.1,0.7 -0.1,0.3 0,0.6 0.1,0.5 0.2,0.6 0.2,0.1 0.5,0.3 1,0.1 1.9,-0.7 0.9,-0.9 1.8,-1.4 3.1,-2 6.6,-3.2 1,-0.3 1.9,-0.4 1,-0.1 2.2,-0.3 0.3,-0.1 0.9,0 0.6,0 0.8,-0.1 z"
         style=""
         id="path4325" />
    </g>
    <g
       style="font-style:italic;font-variant:normal;font-weight:bold;font-stretch:normal;font-size:20px;line-height:125%;font-family:'Alte Haas Grotesk';-inkscape-font-specification:'Sans Italic';letter-spacing:0px;word-spacing:0px;fill:#000000;fill-opacity:1;stroke:none"
       id="text9112">
      <path
         d="m 326.92482,21.038048 q 0.1,0.08 0.1,0.34 0,0.26 -0.1,0.48 l -0.02,0.16 q -0.08,0.18 -0.18,0.3 -0.08,0.1 -0.26,0.16 -0.18,0.04 -0.5,0.04 -0.32,-0.02 -0.54,-0.02 l -0.3,0 q -0.1,0.04 -0.18,0.02 -0.08,-0.02 -0.16,0.02 -0.22,0.08 -0.38,0.38 -0.06,0.1 -0.08,0.24 -0.02,0.14 -0.04,0.28 l -0.96,4.72 q -0.02,0.1 -0.02,0.18 0,0.08 -0.04,0.16 l -0.04,0.16 q -0.02,0.06 -0.04,0.12 0,0.06 -0.06,0.1 -0.08,0.16 -0.26,0.22 -0.1,0.04 -0.24,0.04 -0.12,0 -0.28,0 -0.28,0 -0.62,0 -0.34,0 -0.46,-0.16 -0.06,-0.12 -0.04,-0.28 0.04,-0.16 0.08,-0.36 l 0.94,-4.72 q 0.02,-0.1 0.04,-0.2 0.04,-0.1 0.02,-0.18 l 0.04,-0.28 q 0.02,-0.32 -0.2,-0.4 -0.18,-0.1 -0.54,-0.08 -0.34,0.02 -0.6,0.02 -0.1,0 -0.2,0.02 -0.08,0 -0.14,-0.02 -0.08,-0.04 -0.14,-0.02 -0.06,0 -0.12,-0.02 -0.2,-0.1 -0.18,-0.32 0.02,-0.22 0.08,-0.52 0.02,-0.12 0.04,-0.22 0.04,-0.1 0.1,-0.2 0.06,-0.1 0.16,-0.14 0.1,-0.06 0.2,-0.1 0.06,-0.02 0.08,0 0.04,0 0.1,-0.02 l 5.34,0 q 0.18,0 0.34,0.02 0.16,0 0.26,0.08 z m 10.64,0.04 q 0.08,0.14 0.04,0.32 -0.02,0.18 -0.06,0.4 l -1.3,6.5 q -0.04,0.22 -0.1,0.4 -0.04,0.16 -0.14,0.28 -0.14,0.16 -0.44,0.16 -0.28,0 -0.56,0 -0.12,0 -0.26,0.02 -0.12,0 -0.2,-0.04 -0.18,-0.06 -0.22,-0.18 -0.02,-0.12 -0.02,-0.3 l 0.06,-0.34 q 0,-0.06 0.02,-0.14 0.02,-0.1 0.04,-0.18 l 0.52,-2.54 q 0.04,-0.24 0.08,-0.48 0.06,-0.24 0.06,-0.44 -0.02,-0.1 -0.02,-0.16 0,-0.08 -0.06,-0.12 -0.02,-0.02 -0.06,-0.02 -0.06,0.04 -0.14,0.08 -0.2,0.24 -0.36,0.54 -0.16,0.3 -0.34,0.58 -0.36,0.62 -0.7,1.26 -0.34,0.62 -0.7,1.22 -0.16,0.28 -0.34,0.64 -0.18,0.34 -0.42,0.5 -0.12,0.08 -0.28,0.1 -0.16,0 -0.34,0 l -0.3,0 q -0.1,-0.04 -0.18,-0.06 -0.08,-0.04 -0.14,-0.1 -0.06,-0.06 -0.08,-0.16 -0.02,-0.1 -0.04,-0.2 -0.06,-0.18 -0.08,-0.36 -0.02,-0.2 -0.06,-0.4 -0.12,-0.58 -0.2,-1.18 -0.08,-0.62 -0.2,-1.2 -0.06,-0.34 -0.12,-0.68 -0.04,-0.34 -0.22,-0.58 -0.04,0 -0.06,0.02 -0.02,0 -0.04,0 -0.1,0.08 -0.14,0.18 -0.06,0.1 -0.08,0.2 0,0.08 -0.04,0.18 l -0.06,0.34 q -0.04,0.08 -0.06,0.16 -0.02,0.08 -0.02,0.14 l -0.48,2.32 q -0.04,0.26 -0.12,0.64 -0.06,0.36 -0.18,0.52 -0.06,0.04 -0.12,0.1 -0.04,0.04 -0.1,0.06 -0.1,0.04 -0.24,0.06 -0.12,0 -0.28,0 -0.26,0 -0.52,0 -0.26,0 -0.4,-0.12 -0.1,-0.08 -0.1,-0.26 0.02,-0.18 0.06,-0.4 l 1.32,-6.6 q 0.04,-0.18 0.08,-0.34 0.06,-0.18 0.14,-0.28 0.1,-0.14 0.32,-0.18 0.06,-0.02 0.08,0 0.04,0 0.1,-0.02 l 1.32,0 q 0.22,0 0.42,0 0.2,0 0.3,0.1 0.16,0.12 0.18,0.38 0.04,0.26 0.1,0.48 0.1,0.56 0.2,1.14 0.1,0.56 0.2,1.14 0.08,0.3 0.12,0.62 0.06,0.32 0.12,0.62 0.04,0.12 0.06,0.26 0.04,0.12 0.16,0.16 0.1,0.04 0.18,-0.04 0.1,-0.08 0.14,-0.14 0.2,-0.22 0.32,-0.46 0.14,-0.26 0.28,-0.5 0.42,-0.66 0.78,-1.34 0.38,-0.7 0.8,-1.36 0.16,-0.28 0.32,-0.58 0.18,-0.32 0.48,-0.44 0.14,-0.04 0.28,-0.04 0.16,0 0.32,0 l 0.88,0 q 0.12,0 0.24,0 0.12,-0.02 0.22,0 l 0.1,0 q 0.08,0.04 0.16,0.06 0.1,0.02 0.12,0.08 z"
         style=""
         id="path4328" />
    </g>
    <g
       transform="matrix(0.13272567,0.01947468,-0.01947468,0.13272567,170.19741,12.570146)"
       id="g4701">
      <linearGradient
         x1="-7708.7969"
         y1="-803.36011"
         x2="-7633.1528"
         y2="-714.90741"
         id="SVGID_1_"
         gradientUnits="userSpaceOnUse"
         gradientTransform="matrix(0.4226,-0.9063,0.9063,0.4226,4226.9761,-6584.5938)">
        <stop
           id="stop4704"
           style="stop-color:#f69923;stop-opacity:1"
           offset="0" />
        <stop
           id="stop4706"
           style="stop-color:#f79a23;stop-opacity:1"
           offset="0.3123" />
        <stop
           id="stop4708"
           style="stop-color:#e97826;stop-opacity:1"
           offset="0.83829999" />
      </linearGradient>
      <path
         d="m 267.1,19.6 c -8.4,5 -22.4,19 -39,39.3 l 15.3,28.9 c 10.7,-15.4 21.7,-29.2 32.7,-41 0.8,-0.9 1.3,-1.4 1.3,-1.4 -0.4,0.5 -0.9,0.9 -1.3,1.4 -3.6,3.9 -14.4,16.5 -30.7,41.6 15.7,-0.8 39.8,-4 59.5,-7.4 5.9,-32.8 -5.7,-47.8 -5.7,-47.8 0,0 -14.8,-23.9 -32.1,-13.6 z"
         id="path4710"
         style="fill:url(#linearGradient5344)" />
      <path
         d="m 241.1,184.4 c 0.1,0 0.2,0 0.3,-0.1 l -2.2,0.2 c -0.1,0.1 -0.3,0.1 -0.4,0.2 0.8,-0.1 1.6,-0.2 2.3,-0.3 z"
         id="path4712"
         style="fill:none" />
      <path
         d="m 225.5,236.1 c -1.2,0.3 -2.5,0.5 -3.8,0.7 1.3,-0.2 2.6,-0.4 3.8,-0.7 z"
         id="path4714"
         style="fill:none" />
      <path
         d="m 119.3,352.2 c 0.2,-0.4 0.3,-0.9 0.5,-1.3 3.4,-8.9 6.7,-17.5 10,-26 3.7,-9.4 7.4,-18.6 11,-27.5 3.8,-9.3 7.6,-18.4 11.3,-27.1 3.9,-9.2 7.7,-18 11.5,-26.5 3.1,-6.9 6.1,-13.6 9.1,-20.1 1,-2.2 2,-4.3 3,-6.4 2,-4.2 3.9,-8.3 5.8,-12.3 1.8,-3.7 3.5,-7.3 5.2,-10.9 0.6,-1.2 1.2,-2.4 1.7,-3.5 0.1,-0.2 0.2,-0.4 0.3,-0.6 l -1.9,0.2 -1.5,-2.9 c -0.1,0.3 -0.3,0.6 -0.4,0.9 -2.7,5.3 -5.4,10.7 -8,16.2 -1.5,3.1 -3,6.3 -4.6,9.5 -4.2,8.8 -8.3,17.6 -12.3,26.6 -4.1,9 -8.1,18.1 -12,27.1 -3.9,8.9 -7.6,17.8 -11.3,26.7 -3.7,8.9 -7.3,17.7 -10.8,26.5 -3.7,9.2 -7.3,18.3 -10.7,27.3 -0.8,2 -1.6,4.1 -2.3,6.1 -2.8,7.3 -5.5,14.4 -8.1,21.5 l 2.4,4.7 2.1,-0.2 c 0.1,-0.2 0.2,-0.4 0.2,-0.6 3.1,-9.5 6.5,-18.6 9.8,-27.4 z"
         id="path4716"
         style="fill:none" />
      <path
         d="m 220.7,236.9 0,0 c 0,0 0,0 0,0 0,0 0,0 0,0 z"
         id="path4718"
         style="fill:none" />
      <path
         d="m 215.6,262.2 c -2,0.4 -4,0.7 -6,1 0,0 0,0 0,0 1,-0.1 2.1,-0.3 3.1,-0.5 1,-0.1 2,-0.3 2.9,-0.5 z"
         id="path4720"
         style="fill:#be202e" />
      <path
         d="m 215.6,262.2 c -2,0.4 -4,0.7 -6,1 0,0 0,0 0,0 1,-0.1 2.1,-0.3 3.1,-0.5 1,-0.1 2,-0.3 2.9,-0.5 z"
         id="path4722"
         style="opacity:0.35;fill:#be202e" />
      <path
         d="m 220.8,236.9 c 0,0 0,0 0,0 -0.1,0 -0.1,0 0,0 0.3,0 0.6,-0.1 0.9,-0.1 1.3,-0.2 2.6,-0.4 3.8,-0.7 -1.5,0.3 -3.1,0.5 -4.7,0.8 l 0,0 0,0 z"
         id="path4724"
         style="fill:#be202e" />
      <path
         d="m 220.8,236.9 c 0,0 0,0 0,0 -0.1,0 -0.1,0 0,0 0.3,0 0.6,-0.1 0.9,-0.1 1.3,-0.2 2.6,-0.4 3.8,-0.7 -1.5,0.3 -3.1,0.5 -4.7,0.8 l 0,0 0,0 z"
         id="path4726"
         style="opacity:0.35;fill:#be202e" />
      <linearGradient
         x1="-8268.6387"
         y1="-813.12323"
         x2="-7728.9585"
         y2="-813.12323"
         id="SVGID_2_"
         gradientUnits="userSpaceOnUse"
         gradientTransform="matrix(0.4226,-0.9063,0.9063,0.4226,4226.9761,-6584.5938)">
        <stop
           id="stop4729"
           style="stop-color:#9e2064;stop-opacity:1"
           offset="0.3233" />
        <stop
           id="stop4731"
           style="stop-color:#c92037;stop-opacity:1"
           offset="0.63020003" />
        <stop
           id="stop4733"
           style="stop-color:#cd2335;stop-opacity:1"
           offset="0.75139999" />
        <stop
           id="stop4735"
           style="stop-color:#e97826;stop-opacity:1"
           offset="1" />
      </linearGradient>
      <path
         d="m 198.2,162.4 c 4.7,-8.7 9.4,-17.2 14.1,-25.5 4.9,-8.6 9.9,-16.9 15,-25 0.3,-0.5 0.6,-1 0.9,-1.4 5,-7.9 10,-15.5 15.1,-22.8 L 228,58.9 c -1.1,1.4 -2.3,2.8 -3.5,4.3 -4.4,5.5 -9,11.4 -13.7,17.7 -5.3,7.1 -10.7,14.6 -16.3,22.5 -5.1,7.3 -10.3,15 -15.5,22.9 -4.4,6.8 -8.8,13.7 -13.2,20.8 -0.2,0.3 -0.3,0.5 -0.5,0.8 l 19.9,39.3 c 4.4,-8.3 8.7,-16.6 13,-24.8 z"
         id="path4737"
         style="fill:url(#linearGradient5346)" />
      <linearGradient
         x1="-8203.4922"
         y1="-758.99402"
         x2="-7881.895"
         y2="-758.99402"
         id="SVGID_3_"
         gradientUnits="userSpaceOnUse"
         gradientTransform="matrix(0.4226,-0.9063,0.9063,0.4226,4226.9761,-6584.5938)">
        <stop
           id="stop4740"
           style="stop-color:#282662;stop-opacity:1"
           offset="0" />
        <stop
           id="stop4742"
           style="stop-color:#662e8d;stop-opacity:1"
           offset="0.0954839" />
        <stop
           id="stop4744"
           style="stop-color:#9f2064;stop-opacity:1"
           offset="0.78820002" />
        <stop
           id="stop4746"
           style="stop-color:#cd2032;stop-opacity:1"
           offset="0.94870001" />
      </linearGradient>
      <path
         d="m 107.5,384.1 c -2.6,7.2 -5.3,14.6 -7.9,22.2 0,0.1 -0.1,0.2 -0.1,0.3 -0.4,1.1 -0.8,2.1 -1.1,3.2 -1.8,5.1 -3.3,9.7 -6.9,20.1 5.9,2.7 10.6,9.7 15,17.7 -0.5,-8.3 -3.9,-16.1 -10.4,-22.1 28.9,1.3 53.9,-6 66.7,-27.2 1.1,-1.9 2.2,-3.9 3.2,-6 -5.9,7.4 -13.1,10.6 -26.8,9.8 0,0 -0.1,0 -0.1,0 0,0 0.1,0 0.1,0 20.1,-9 30.2,-17.7 39.1,-32 2.1,-3.4 4.2,-7.1 6.3,-11.2 -17.6,18.1 -38,23.2 -59.5,19.3 L 109,380 c -0.5,1.4 -1,2.7 -1.5,4.1 z"
         id="path4748"
         style="fill:url(#linearGradient5348)" />
      <linearGradient
         x1="-8238.3281"
         y1="-818.15222"
         x2="-7698.647"
         y2="-818.15222"
         id="SVGID_4_"
         gradientUnits="userSpaceOnUse"
         gradientTransform="matrix(0.4226,-0.9063,0.9063,0.4226,4226.9761,-6584.5938)">
        <stop
           id="stop4751"
           style="stop-color:#9e2064;stop-opacity:1"
           offset="0.3233" />
        <stop
           id="stop4753"
           style="stop-color:#c92037;stop-opacity:1"
           offset="0.63020003" />
        <stop
           id="stop4755"
           style="stop-color:#cd2335;stop-opacity:1"
           offset="0.75139999" />
        <stop
           id="stop4757"
           style="stop-color:#e97826;stop-opacity:1"
           offset="1" />
      </linearGradient>
      <path
         d="m 115,348 c 3.5,-9 7.1,-18.1 10.7,-27.3 3.5,-8.8 7.1,-17.6 10.8,-26.5 3.7,-8.9 7.5,-17.8 11.3,-26.7 3.9,-9.1 7.9,-18.1 12,-27.1 4,-8.9 8.2,-17.8 12.3,-26.6 1.5,-3.2 3,-6.3 4.6,-9.5 2.6,-5.4 5.3,-10.8 8,-16.2 0.1,-0.3 0.3,-0.6 0.4,-0.9 L 165.4,148 c -0.3,0.5 -0.6,1.1 -1,1.6 -4.6,7.6 -9.3,15.3 -13.8,23.2 -4.6,8 -9.1,16.1 -13.5,24.4 -3.7,7 -7.3,14 -10.9,21.1 -0.7,1.4 -1.4,2.9 -2.1,4.3 -4.3,8.9 -8.3,17.6 -11.8,25.9 -4,9.4 -7.5,18.4 -10.6,26.9 -2,5.6 -3.9,11 -5.6,16.2 -1.4,4.4 -2.7,8.9 -4,13.3 -3,10.4 -5.5,20.8 -7.6,31.2 l 20,39.5 c 2.6,-7.1 5.4,-14.2 8.1,-21.5 0.8,-2 1.6,-4 2.4,-6.1 z"
         id="path4759"
         style="fill:url(#linearGradient5350)" />
      <linearGradient
         x1="-8198.9678"
         y1="-810.85059"
         x2="-7915.3501"
         y2="-810.85059"
         id="SVGID_5_"
         gradientUnits="userSpaceOnUse"
         gradientTransform="matrix(0.4226,-0.9063,0.9063,0.4226,4226.9761,-6584.5938)">
        <stop
           id="stop4762"
           style="stop-color:#282662;stop-opacity:1"
           offset="0" />
        <stop
           id="stop4764"
           style="stop-color:#662e8d;stop-opacity:1"
           offset="0.0954839" />
        <stop
           id="stop4766"
           style="stop-color:#9f2064;stop-opacity:1"
           offset="0.78820002" />
        <stop
           id="stop4768"
           style="stop-color:#cd2032;stop-opacity:1"
           offset="0.94870001" />
      </linearGradient>
      <path
         d="m 84.2,337.5 c -2.5,12.6 -4.3,25.2 -5.2,37.8 0,0.4 -0.1,0.9 -0.1,1.3 -6.2,-10 -23,-19.8 -22.9,-19.7 12,17.4 21.1,34.6 22.4,51.5 -6.4,1.3 -15.2,-0.6 -25.3,-4.3 10.6,9.7 18.5,12.4 21.6,13.1 -9.7,0.6 -19.8,7.3 -30,15 14.9,-6.1 27,-8.5 35.6,-6.5 -13.7,38.7 -27.4,81.5 -41.1,126.9 4.2,-1.2 6.7,-4.1 8.1,-7.9 2.4,-8.2 18.7,-62.2 44.1,-133.1 0.7,-2 1.5,-4 2.2,-6.1 0.2,-0.6 0.4,-1.1 0.6,-1.7 2.7,-7.4 5.5,-15 8.4,-22.8 0.7,-1.8 1.3,-3.5 2,-5.3 0,0 0,-0.1 0,-0.1 l -20,-39.5 c -0.2,0.5 -0.3,0.9 -0.4,1.4 z"
         id="path4770"
         style="fill:url(#linearGradient5352)" />
      <linearGradient
         x1="-8238.3281"
         y1="-762.29712"
         x2="-7698.647"
         y2="-762.29712"
         id="SVGID_6_"
         gradientUnits="userSpaceOnUse"
         gradientTransform="matrix(0.4226,-0.9063,0.9063,0.4226,4226.9761,-6584.5938)">
        <stop
           id="stop4773"
           style="stop-color:#9e2064;stop-opacity:1"
           offset="0.3233" />
        <stop
           id="stop4775"
           style="stop-color:#c92037;stop-opacity:1"
           offset="0.63020003" />
        <stop
           id="stop4777"
           style="stop-color:#cd2335;stop-opacity:1"
           offset="0.75139999" />
        <stop
           id="stop4779"
           style="stop-color:#e97826;stop-opacity:1"
           offset="1" />
      </linearGradient>
      <path
         d="m 188.4,190.6 c -0.6,1.2 -1.1,2.3 -1.7,3.5 -1.7,3.6 -3.5,7.2 -5.2,10.9 -1.9,4 -3.8,8.1 -5.8,12.3 -1,2.1 -2,4.2 -3,6.4 -3,6.5 -6,13.2 -9.1,20.1 -3.8,8.5 -7.6,17.3 -11.5,26.5 -3.7,8.7 -7.5,17.8 -11.3,27.1 -3.6,8.9 -7.3,18 -11,27.5 -3.3,8.4 -6.6,17.1 -10,26 -0.2,0.4 -0.3,0.9 -0.5,1.3 -3.3,8.8 -6.7,17.9 -10.1,27.2 -0.1,0.2 -0.2,0.4 -0.2,0.6 l 16.1,-1.8 c -0.3,-0.1 -0.6,-0.1 -1,-0.2 19.3,-2.4 44.9,-16.8 61.4,-34.6 7.6,-8.2 14.5,-17.8 20.9,-29.1 4.8,-8.4 9.2,-17.7 13.5,-28.1 3.7,-9 7.3,-18.8 10.7,-29.4 -4.4,2.3 -9.5,4 -15.1,5.2 -1,0.2 -2,0.4 -3,0.6 -1,0.2 -2,0.3 -3.1,0.5 l 0,0 0,0 c 0,0 0,0 0,0 18,-6.9 29.3,-20.2 37.5,-36.6 -4.7,3.2 -12.4,7.4 -21.6,9.5 -1.2,0.3 -2.5,0.5 -3.8,0.7 -0.3,0 -0.6,0.1 -1,0.1 l 0,0 0,0 c 0,0 0,0 0,0 0,0 0,0 0,0 l 0,0 c 6.2,-2.6 11.5,-5.5 16.1,-9 1,-0.7 1.9,-1.5 2.8,-2.3 1.4,-1.2 2.7,-2.5 4,-3.8 0.8,-0.9 1.6,-1.7 2.4,-2.6 1.8,-2.1 3.5,-4.4 5,-6.9 0.5,-0.8 1,-1.5 1.4,-2.3 0.6,-1.2 1.2,-2.3 1.7,-3.4 2.5,-5 4.5,-9.5 6.1,-13.5 0.8,-2 1.5,-3.8 2.1,-5.5 0.2,-0.7 0.5,-1.3 0.7,-2 0.6,-1.9 1.2,-3.6 1.6,-5.1 0.6,-2.2 1,-4 1.2,-5.3 l 0,0 0,0 c -0.6,0.5 -1.3,1 -2.1,1.4 -5.4,3.2 -14.7,6.2 -22.2,7.6 l 14.8,-1.6 -14.8,1.6 c -0.1,0 -0.2,0 -0.3,0.1 -0.7,0.1 -1.5,0.2 -2.3,0.4 0.1,-0.1 0.3,-0.1 0.4,-0.2 l -50.6,5.5 c 0.1,0.4 0,0.6 -0.1,0.7 z"
         id="path4781"
         style="fill:url(#linearGradient5354)" />
      <linearGradient
         x1="-8271.8057"
         y1="-765.07068"
         x2="-7732.125"
         y2="-765.07068"
         id="SVGID_7_"
         gradientUnits="userSpaceOnUse"
         gradientTransform="matrix(0.4226,-0.9063,0.9063,0.4226,4226.9761,-6584.5938)">
        <stop
           id="stop4784"
           style="stop-color:#9e2064;stop-opacity:1"
           offset="0.3233" />
        <stop
           id="stop4786"
           style="stop-color:#c92037;stop-opacity:1"
           offset="0.63020003" />
        <stop
           id="stop4788"
           style="stop-color:#cd2335;stop-opacity:1"
           offset="0.75139999" />
        <stop
           id="stop4790"
           style="stop-color:#e97826;stop-opacity:1"
           offset="1" />
      </linearGradient>
      <path
         d="m 245.4,88.4 c -4.5,6.9 -9.4,14.8 -14.7,23.6 -0.3,0.5 -0.6,0.9 -0.8,1.4 -4.6,7.7 -9.4,16.1 -14.5,25.4 -4.4,8 -9,16.5 -13.8,25.8 -4.2,8 -8.4,16.5 -12.9,25.5 l 50.6,-5.5 c 14.7,-6.8 21.3,-12.9 27.7,-21.8 1.7,-2.4 3.4,-5 5.1,-7.7 5.2,-8.1 10.3,-17 14.8,-25.9 4.4,-8.6 8.3,-17.1 11.2,-24.7 1.9,-4.9 3.4,-9.4 4.5,-13.4 0.9,-3.5 1.6,-6.8 2.2,-10 -19.6,3.3 -43.7,6.5 -59.4,7.3 z"
         id="path4792"
         style="fill:url(#linearGradient5356)" />
      <path
         d="m 212.7,262.8 c -1,0.2 -2,0.3 -3.1,0.5 l 0,0 c 1,-0.2 2,-0.4 3.1,-0.5 z"
         id="path4794"
         style="fill:#be202e" />
      <path
         d="m 212.7,262.8 c -1,0.2 -2,0.3 -3.1,0.5 l 0,0 c 1,-0.2 2,-0.4 3.1,-0.5 z"
         id="path4796"
         style="opacity:0.35;fill:#be202e" />
      <linearGradient
         x1="-8238.3281"
         y1="-745.68481"
         x2="-7698.647"
         y2="-745.68481"
         id="SVGID_8_"
         gradientUnits="userSpaceOnUse"
         gradientTransform="matrix(0.4226,-0.9063,0.9063,0.4226,4226.9761,-6584.5938)">
        <stop
           id="stop4799"
           style="stop-color:#9e2064;stop-opacity:1"
           offset="0.3233" />
        <stop
           id="stop4801"
           style="stop-color:#c92037;stop-opacity:1"
           offset="0.63020003" />
        <stop
           id="stop4803"
           style="stop-color:#cd2335;stop-opacity:1"
           offset="0.75139999" />
        <stop
           id="stop4805"
           style="stop-color:#e97826;stop-opacity:1"
           offset="1" />
      </linearGradient>
      <path
         d="m 212.7,262.8 c -1,0.2 -2,0.3 -3.1,0.5 l 0,0 c 1,-0.2 2,-0.4 3.1,-0.5 z"
         id="path4807"
         style="fill:url(#linearGradient5358)" />
      <path
         d="m 220.7,236.9 c 0.3,0 0.6,-0.1 1,-0.1 -0.3,0 -0.6,0.1 -1,0.1 l 0,0 z"
         id="path4809"
         style="fill:#be202e" />
      <path
         d="m 220.7,236.9 c 0.3,0 0.6,-0.1 1,-0.1 -0.3,0 -0.6,0.1 -1,0.1 l 0,0 z"
         id="path4811"
         style="opacity:0.35;fill:#be202e" />
      <linearGradient
         x1="-8238.3281"
         y1="-747.58557"
         x2="-7698.647"
         y2="-747.58557"
         id="SVGID_9_"
         gradientUnits="userSpaceOnUse"
         gradientTransform="matrix(0.4226,-0.9063,0.9063,0.4226,4226.9761,-6584.5938)">
        <stop
           id="stop4814"
           style="stop-color:#9e2064;stop-opacity:1"
           offset="0.3233" />
        <stop
           id="stop4816"
           style="stop-color:#c92037;stop-opacity:1"
           offset="0.63020003" />
        <stop
           id="stop4818"
           style="stop-color:#cd2335;stop-opacity:1"
           offset="0.75139999" />
        <stop
           id="stop4820"
           style="stop-color:#e97826;stop-opacity:1"
           offset="1" />
      </linearGradient>
      <path
         d="m 220.7,236.9 c 0.3,0 0.6,-0.1 1,-0.1 -0.3,0 -0.6,0.1 -1,0.1 l 0,0 z"
         id="path4822"
         style="fill:url(#linearGradient5360)" />
      <path
         d="m 220.8,236.9 c 0,0 0,0 0,0 l 0,0 0,0 0,0 c 0,0 0,0 0,0 z"
         id="path4824"
         style="fill:#be202e" />
      <path
         d="m 220.8,236.9 c 0,0 0,0 0,0 l 0,0 0,0 0,0 c 0,0 0,0 0,0 z"
         id="path4826"
         style="opacity:0.35;fill:#be202e" />
      <linearGradient
         x1="-7935.1431"
         y1="-747.9668"
         x2="-7815.856"
         y2="-747.9668"
         id="SVGID_10_"
         gradientUnits="userSpaceOnUse"
         gradientTransform="matrix(0.4226,-0.9063,0.9063,0.4226,4226.9761,-6584.5938)">
        <stop
           id="stop4829"
           style="stop-color:#9e2064;stop-opacity:1"
           offset="0.3233" />
        <stop
           id="stop4831"
           style="stop-color:#c92037;stop-opacity:1"
           offset="0.63020003" />
        <stop
           id="stop4833"
           style="stop-color:#cd2335;stop-opacity:1"
           offset="0.75139999" />
        <stop
           id="stop4835"
           style="stop-color:#e97826;stop-opacity:1"
           offset="1" />
      </linearGradient>
      <path
         d="m 220.8,236.9 c 0,0 0,0 0,0 l 0,0 0,0 0,0 c 0,0 0,0 0,0 z"
         id="path4837"
         style="fill:url(#linearGradient5362)" />
    </g>
  </g>
  <g
     transform="translate(385.61463,-191.53704)"
     id="g4845" />
  <g
     transform="translate(385.61463,-191.53704)"
     id="g4847" />
  <g
     transform="translate(385.61463,-191.53704)"
     id="g4849" />
  <g
     transform="translate(385.61463,-191.53704)"
     id="g4851" />
  <g
     transform="translate(385.61463,-191.53704)"
     id="g4853" />
  <g
     transform="translate(385.61463,-191.53704)"
     id="g4855" />
</svg>
