<svg xmlns="http://www.w3.org/2000/svg" width="147.568" height="147.627" viewBox="0 0 147.568 147.627">
  <defs>
    <style>
      .a {
        fill: #fff;
      }

      .b {
        fill: #49a32b;
      }
    </style>
  </defs>
  <title>SW</title>
  <g>
    <path class="a" d="M73.242,147.625C33.922,147.354-.264,114.709,0,73.236.256,33.328,33.405-.272,74.424,0c39.864.265,73.5,33.368,73.141,73.924C147.9,114.112,114.1,147.909,73.242,147.625Zm0,0C33.922,147.354-.264,114.709,0,73.236.256,33.328,33.405-.272,74.424,0c39.864.265,73.5,33.368,73.141,73.924C147.9,114.112,114.1,147.909,73.242,147.625Z"/>
    <path class="b" d="M73.387,138.068C39.2,137.832,9.482,109.452,9.713,73.4c.221-34.7,29.04-63.907,64.7-63.669,34.658.23,63.9,29.01,63.588,64.268C138.289,108.933,108.905,138.315,73.387,138.068Zm0,0C39.2,137.832,9.482,109.452,9.713,73.4c.221-34.7,29.04-63.907,64.7-63.669,34.658.23,63.9,29.01,63.588,64.268C138.289,108.933,108.905,138.315,73.387,138.068Z"/>
    <path class="a" d="M97.516,73.951A5.4,5.4,0,1,0,92.052,79.1C94.683,79.543,97.348,77.006,97.516,73.951Z"/>
    <path class="a" d="M50.667,103.555c-2.665-.079-3.668-.736-3.93-3.316-.339-3.324-.243-6.689-.454-10.029-.394-6.216-1.082-12.338-7.136-16.276,3.119-2.31,5.369-5.03,6.084-8.693a61.62,61.62,0,0,0,1.028-7.65c.176-2.58-.136-5.2.09-7.768.361-4.1.618-5.79,5.573-5.638.734.022,1.473-.095,2.283-.152V35.894c-1.96,0-3.7-.078-5.427.014-6.081.322-9.762,3.2-10.766,9.132-.694,4.1-.586,8.332-.889,12.5a43.138,43.138,0,0,1-.69,6.423c-.857,3.773-2.472,4.95-6.3,5.138a13.226,13.226,0,0,0-1.519.261v9.065c6.989.345,7.932,2.834,8.489,10.114.2,2.647-.091,5.329.077,7.981a44.234,44.234,0,0,0,1,7.441c1.592,6.656,8.078,8.892,15.951,7.56v-7.964C52.865,103.561,51.766,103.588,50.667,103.555Z"/>
    <path class="a" d="M55.769,68.657A5.224,5.224,0,1,0,55.593,79.1a5.131,5.131,0,0,0,5.423-5.112A5.244,5.244,0,0,0,55.769,68.657Z"/>
    <path class="a" d="M73.808,68.657a5.008,5.008,0,0,0-5.158,5.321c.017,3.111,2.121,5.134,5.322,5.12,3.146-.013,5.139-2.07,5.122-5.284A4.915,4.915,0,0,0,73.808,68.657Z"/>
    <path class="a" d="M111.576,64.692a31.755,31.755,0,0,1-.931-6.174c-.246-3.83-.208-7.679-.465-11.509-.611-9.124-7.2-12.294-16.731-10.711v7.909c1.5,0,2.667-.023,3.836.006,2.04.05,3.58.825,3.8,3.067.2,2.076.193,4.172.388,6.249.389,4.156.627,8.345,1.359,12.443.6,3.385,2.936,5.889,5.84,7.96-5.076,3.4-6.567,8.265-6.811,13.713-.169,3.769-.251,7.542-.438,11.31-.169,3.43-1.39,4.544-4.844,4.627-.955.022-1.908.114-2.984.181v8.1c2.006,0,3.88.093,5.743-.017,5.78-.342,9.282-3.137,10.411-8.741a72.685,72.685,0,0,0,.853-9.343c.2-2.851.173-5.723.459-8.563.448-4.45,2.47-6.27,6.908-6.546a7.649,7.649,0,0,0,1.234-.3V69.3c-.743-.083-1.283-.175-1.826-.2C114.057,68.943,112.418,67.838,111.576,64.692Z"/>
  </g>
</svg>
