<?xml version="1.0" encoding="iso-8859-1"?>
<svg width="48" height="64" viewBox="0 0 48 64" fill="none" xmlns="http://www.w3.org/2000/svg">
	<path fill-rule="evenodd" clip-rule="evenodd" d="M4 0C1.79086 0 0 1.79086 0 4V60C0 62.2091 1.79086 64 4 64H44C46.2091 64 48 62.2091 48 60V12L36 0H4Z" fill="#F2E1C2"/>
	<path d="M0 40H48V60C48 62.2091 46.2091 64 44 64H4C1.79086 64 0 62.2091 0 60V40Z" fill="#CD2C48"/>
	<path d="M12.7325 54.992C12.7325 54.712 12.8351 54.474 13.0405 54.278C13.2458 54.0727 13.4791 53.97 13.7405 53.97C13.9831 53.97 14.2071 54.0727 14.4125 54.278C14.6178 54.474 14.7205 54.712 14.7205 54.992C14.7205 55.2813 14.6178 55.524 14.4125 55.72C14.2165 55.9067 13.9925 56 13.7405 56C13.4791 56 13.2458 55.9067 13.0405 55.72C12.8351 55.5333 12.7325 55.2907 12.7325 54.992ZM21.3547 53.984H17.9387L17.0987 56H15.0967L19.7447 45.29H19.8567L24.5047 56H22.1527L21.3547 53.984ZM20.6827 52.276L19.6887 49.77L18.6527 52.276H20.6827ZM26.0068 45.696H29.0868C30.4028 45.696 31.4854 45.9527 32.3348 46.466C33.1841 46.97 33.8001 47.628 34.1828 48.44C34.5748 49.2427 34.7708 50.106 34.7708 51.03C34.7708 52.0193 34.5374 52.892 34.0708 53.648C33.6041 54.404 32.9741 54.9873 32.1808 55.398C31.3968 55.7993 30.5334 56 29.5908 56H26.0068V45.696ZM29.2408 54.04C30.2954 54.04 31.1308 53.7693 31.7468 53.228C32.3628 52.6867 32.6708 51.9073 32.6708 50.89C32.6708 50.0687 32.4981 49.4153 32.1528 48.93C31.8168 48.4447 31.4201 48.1087 30.9628 47.922C30.5148 47.7353 30.0901 47.642 29.6888 47.642H28.0368V54.04H29.2408Z" fill="white"/>
	<path d="M12.5225 57.4H35.4708V58.1H12.5225V57.4Z" fill="white"/>
	<path d="M48 12L36 0V8C36 10.2091 37.7909 12 40 12H48Z" fill="#F2D194"/>
</svg>
