<?xml version="1.0" encoding="iso-8859-1"?>
<svg width="48" height="64" viewBox="0 0 48 64" fill="none" xmlns="http://www.w3.org/2000/svg">
	<path fill-rule="evenodd" clip-rule="evenodd" d="M4 0C1.79086 0 0 1.79086 0 4V60C0 62.2091 1.79086 64 4 64H44C46.2091 64 48 62.2091 48 60V12L36 0H4Z" fill="#F2E1C2"/>
	<path d="M0 40H48V60C48 62.2091 46.2091 64 44 64H4C1.79086 64 0 62.2091 0 60V40Z" fill="#444444"/>
	<path d="M20.6006 54.992C20.6006 54.712 20.7033 54.474 20.9086 54.278C21.114 54.0727 21.3473 53.97 21.6086 53.97C21.8513 53.97 22.0753 54.0727 22.2806 54.278C22.486 54.474 22.5886 54.712 22.5886 54.992C22.5886 55.2813 22.486 55.524 22.2806 55.72C22.0846 55.9067 21.8606 56 21.6086 56C21.3473 56 21.114 55.9067 20.9086 55.72C20.7033 55.5333 20.6006 55.2907 20.6006 54.992ZM23.0069 54.992C23.0069 54.712 23.1095 54.474 23.3149 54.278C23.5202 54.0727 23.7535 53.97 24.0149 53.97C24.2575 53.97 24.4815 54.0727 24.6869 54.278C24.8922 54.474 24.9949 54.712 24.9949 54.992C24.9949 55.2813 24.8922 55.524 24.6869 55.72C24.4909 55.9067 24.2669 56 24.0149 56C23.7535 56 23.5202 55.9067 23.3149 55.72C23.1095 55.5333 23.0069 55.2907 23.0069 54.992ZM25.4131 54.992C25.4131 54.712 25.5158 54.474 25.7211 54.278C25.9265 54.0727 26.1598 53.97 26.4211 53.97C26.6638 53.97 26.8878 54.0727 27.0931 54.278C27.2985 54.474 27.4011 54.712 27.4011 54.992C27.4011 55.2813 27.2985 55.524 27.0931 55.72C26.8971 55.9067 26.6731 56 26.4211 56C26.1598 56 25.9265 55.9067 25.7211 55.72C25.5158 55.5333 25.4131 55.2907 25.4131 54.992Z" fill="white"/>
	<path d="M20.3906 57.4H27.6111V58.1H20.3906V57.4Z" fill="white"/>
	<path d="M48 12L36 0V8C36 10.2091 37.7909 12 40 12H48Z" fill="#F2D194"/>
</svg>
