<?xml version="1.0" encoding="iso-8859-1"?>
<svg width="48" height="64" viewBox="0 0 48 64" fill="none" xmlns="http://www.w3.org/2000/svg">
	<path fill-rule="evenodd" clip-rule="evenodd" d="M4 0C1.79086 0 0 1.79086 0 4V60C0 62.2091 1.79086 64 4 64H44C46.2091 64 48 62.2091 48 60V12L36 0H4Z" fill="#F2E1C2"/>
	<path d="M0 40H48V60C48 62.2091 46.2091 64 44 64H4C1.79086 64 0 62.2091 0 60V40Z" fill="#6796B2"/>
	<path d="M0.624609 54.28C0.624609 54.08 0.697943 53.91 0.844609 53.77C0.991276 53.6233 1.15794 53.55 1.34461 53.55C1.51794 53.55 1.67794 53.6233 1.82461 53.77C1.97128 53.91 2.04461 54.08 2.04461 54.28C2.04461 54.4867 1.97128 54.66 1.82461 54.8C1.68461 54.9333 1.52461 55 1.34461 55C1.15794 55 0.991276 54.9333 0.844609 54.8C0.697943 54.6667 0.624609 54.4933 0.624609 54.28ZM9.11336 54.26C9.00003 54.38 8.79669 54.5067 8.50336 54.64C8.21669 54.7667 7.89669 54.8733 7.54336 54.96C7.19669 55.04 6.88003 55.08 6.59336 55.08C5.81336 55.08 5.12669 54.93 4.53336 54.63C3.94669 54.3233 3.49336 53.9033 3.17336 53.37C2.85336 52.83 2.69336 52.2167 2.69336 51.53C2.69336 50.67 2.86336 49.9433 3.20336 49.35C3.54336 48.75 4.00003 48.3033 4.57336 48.01C5.14669 47.71 5.78003 47.56 6.47336 47.56C6.92003 47.56 7.34003 47.61 7.73336 47.71C8.12669 47.81 8.47336 47.94 8.77336 48.1L8.30336 49.45C8.11003 49.3433 7.84336 49.2467 7.50336 49.16C7.17003 49.0667 6.89003 49.02 6.66336 49.02C5.86336 49.02 5.25003 49.22 4.82336 49.62C4.40336 50.02 4.19336 50.6133 4.19336 51.4C4.19336 51.8533 4.29669 52.25 4.50336 52.59C4.71003 52.9233 4.99669 53.18 5.36336 53.36C5.73669 53.54 6.16003 53.63 6.63336 53.63C7.08669 53.63 7.42336 53.5667 7.64336 53.44V52.55H6.37336V51.15H9.11336V54.26ZM14.7305 55L13.1805 52.66H12.2105V55H10.7605V47.64H12.9905C13.9039 47.64 14.6105 47.8633 15.1105 48.31C15.6172 48.75 15.8705 49.3533 15.8705 50.12C15.8705 50.5733 15.7739 51 15.5805 51.4C15.3939 51.7933 15.1039 52.1033 14.7105 52.33L16.4205 55H14.7305ZM12.2105 51.26H13.2405C13.6339 51.26 13.9205 51.1467 14.1005 50.92C14.2805 50.6867 14.3705 50.4367 14.3705 50.17C14.3705 49.9033 14.2939 49.65 14.1405 49.41C13.9872 49.1633 13.6905 49.04 13.2505 49.04H12.2105V51.26ZM16.9121 51.33C16.9121 50.6633 17.0788 50.04 17.4121 49.46C17.7521 48.88 18.2088 48.42 18.7821 48.08C19.3621 47.7333 19.9888 47.56 20.6621 47.56C21.3354 47.56 21.9588 47.7333 22.5321 48.08C23.1121 48.42 23.5721 48.88 23.9121 49.46C24.2588 50.04 24.4321 50.6633 24.4321 51.33C24.4321 52.01 24.2588 52.6367 23.9121 53.21C23.5721 53.7833 23.1121 54.24 22.5321 54.58C21.9588 54.9133 21.3354 55.08 20.6621 55.08C19.9821 55.08 19.3554 54.9133 18.7821 54.58C18.2088 54.24 17.7521 53.7833 17.4121 53.21C17.0788 52.6367 16.9121 52.01 16.9121 51.33ZM18.4121 51.33C18.4121 51.7567 18.5121 52.15 18.7121 52.51C18.9188 52.87 19.1954 53.1567 19.5421 53.37C19.8954 53.5767 20.2854 53.68 20.7121 53.68C21.1254 53.68 21.5021 53.5767 21.8421 53.37C22.1821 53.1567 22.4488 52.8733 22.6421 52.52C22.8354 52.16 22.9321 51.7633 22.9321 51.33C22.9321 50.89 22.8321 50.49 22.6321 50.13C22.4321 49.77 22.1588 49.4867 21.8121 49.28C21.4721 49.0667 21.0921 48.96 20.6721 48.96C20.2521 48.96 19.8688 49.0667 19.5221 49.28C19.1821 49.4867 18.9121 49.77 18.7121 50.13C18.5121 50.49 18.4121 50.89 18.4121 51.33ZM25.4277 51.33C25.4277 50.6633 25.5944 50.04 25.9277 49.46C26.2677 48.88 26.7244 48.42 27.2977 48.08C27.8777 47.7333 28.5044 47.56 29.1777 47.56C29.8511 47.56 30.4744 47.7333 31.0477 48.08C31.6277 48.42 32.0877 48.88 32.4277 49.46C32.7744 50.04 32.9477 50.6633 32.9477 51.33C32.9477 52.01 32.7744 52.6367 32.4277 53.21C32.0877 53.7833 31.6277 54.24 31.0477 54.58C30.4744 54.9133 29.8511 55.08 29.1777 55.08C28.4977 55.08 27.8711 54.9133 27.2977 54.58C26.7244 54.24 26.2677 53.7833 25.9277 53.21C25.5944 52.6367 25.4277 52.01 25.4277 51.33ZM26.9277 51.33C26.9277 51.7567 27.0277 52.15 27.2277 52.51C27.4344 52.87 27.7111 53.1567 28.0577 53.37C28.4111 53.5767 28.8011 53.68 29.2277 53.68C29.6411 53.68 30.0177 53.5767 30.3577 53.37C30.6977 53.1567 30.9644 52.8733 31.1577 52.52C31.3511 52.16 31.4477 51.7633 31.4477 51.33C31.4477 50.89 31.3477 50.49 31.1477 50.13C30.9477 49.77 30.6744 49.4867 30.3277 49.28C29.9877 49.0667 29.6077 48.96 29.1877 48.96C28.7677 48.96 28.3844 49.0667 28.0377 49.28C27.6977 49.4867 27.4277 49.77 27.2277 50.13C27.0277 50.49 26.9277 50.89 26.9277 51.33ZM39.9853 47.64L36.6253 55.34L33.2653 47.64H35.0053L36.6853 51.79L38.2653 47.64H39.9853ZM47.3786 47.64L44.6186 52.71V55H43.1686V52.71L40.4586 47.64H42.2486L43.9386 51.04L45.5886 47.64H47.3786Z" fill="white"/>
	<path d="M0.474609 56H47.5286V56.5H0.474609V56Z" fill="white"/>
	<path d="M48 12L36 0V8C36 10.2091 37.7909 12 40 12H48Z" fill="#F2D194"/>
</svg>
