<?xml version="1.0" encoding="iso-8859-1"?>
<svg width="48" height="64" viewBox="0 0 48 64" fill="none" xmlns="http://www.w3.org/2000/svg">
	<path fill-rule="evenodd" clip-rule="evenodd" d="M4 0C1.79086 0 0 1.79086 0 4V60C0 62.2091 1.79086 64 4 64H44C46.2091 64 48 62.2091 48 60V12L36 0H4Z" fill="#F2E1C2"/>
	<path d="M0 40H48V60C48 62.2091 46.2091 64 44 64H4C1.79086 64 0 62.2091 0 60V40Z" fill="#EB572B"/>
	<path d="M2.12309 54.992C2.12309 54.712 2.22575 54.474 2.43109 54.278C2.63642 54.0727 2.86975 53.97 3.13109 53.97C3.37375 53.97 3.59775 54.0727 3.80309 54.278C4.00842 54.474 4.11109 54.712 4.11109 54.992C4.11109 55.2813 4.00842 55.524 3.80309 55.72C3.60709 55.9067 3.38309 56 3.13109 56C2.86975 56 2.63642 55.9067 2.43109 55.72C2.22575 55.5333 2.12309 55.2907 2.12309 54.992ZM14.3153 56H12.2853V51.814H7.67934V56H5.64934V45.696H7.67934V49.854H12.2853V45.696H14.3153V56ZM23.2136 45.696V47.656H20.7076V56H18.6776V47.656H16.2696V45.696H23.2136ZM35.7848 45.276V56H33.7548V51.086L30.3948 55.86H30.3668L27.1328 51.394V56H25.1728V45.276H25.1868L30.4088 52.682L35.7568 45.276H35.7848ZM40.4782 45.696V54.04H45.3222V56H38.4482V45.696H40.4782Z" fill="white"/>
	<path d="M1.91309 57.4H46.0922V58.1H1.91309V57.4Z" fill="white"/>
	<path d="M48 12L36 0V8C36 10.2091 37.7909 12 40 12H48Z" fill="#F2D194"/>
</svg>
