<?xml version="1.0" encoding="iso-8859-1"?>
<svg width="48" height="64" viewBox="0 0 48 64" fill="none" xmlns="http://www.w3.org/2000/svg">
	<path fill-rule="evenodd" clip-rule="evenodd" d="M4 0C1.79086 0 0 1.79086 0 4V60C0 62.2091 1.79086 64 4 64H44C46.2091 64 48 62.2091 48 60V12L36 0H4Z" fill="#F2E1C2"/>
	<path d="M0 40H48V60C48 62.2091 46.2091 64 44 64H4C1.79086 64 0 62.2091 0 60V40Z" fill="#6BBCE4"/>
	<path d="M10.4219 54.992C10.4219 54.712 10.5246 54.474 10.7299 54.278C10.9352 54.0727 11.1686 53.97 11.4299 53.97C11.6726 53.97 11.8966 54.0727 12.1019 54.278C12.3072 54.474 12.4099 54.712 12.4099 54.992C12.4099 55.2813 12.3072 55.524 12.1019 55.72C11.9059 55.9067 11.6819 56 11.4299 56C11.1686 56 10.9352 55.9067 10.7299 55.72C10.5246 55.5333 10.4219 55.2907 10.4219 54.992ZM16.8882 53.83C16.8882 54.7073 16.7108 55.4633 16.3562 56.098C16.0108 56.742 15.5208 57.2367 14.8862 57.582C14.2515 57.9273 13.5188 58.114 12.6882 58.142V56.168C14.1255 56.0933 14.8442 55.3 14.8442 53.788V45.696H16.8882V53.83ZM22.6756 45.696C23.9356 45.696 24.911 46.0087 25.6016 46.634C26.2923 47.25 26.6376 48.0947 26.6376 49.168C26.6376 49.784 26.5163 50.3627 26.2736 50.904C26.0403 51.436 25.653 51.8747 25.1116 52.22C24.5796 52.5653 23.889 52.738 23.0396 52.738H21.5836V56H19.5536V45.696H22.6756ZM23.0256 50.764C23.4083 50.764 23.7163 50.68 23.9496 50.512C24.183 50.3347 24.351 50.1293 24.4536 49.896C24.5563 49.6627 24.6076 49.4387 24.6076 49.224C24.6076 48.86 24.5003 48.51 24.2856 48.174C24.071 47.8287 23.6556 47.656 23.0396 47.656H21.5836V50.764H23.0256ZM36.812 54.964C36.6534 55.132 36.3687 55.3093 35.958 55.496C35.5567 55.6733 35.1087 55.8227 34.614 55.944C34.1287 56.056 33.6854 56.112 33.284 56.112C32.192 56.112 31.2307 55.902 30.4 55.482C29.5787 55.0527 28.944 54.4647 28.496 53.718C28.048 52.962 27.824 52.1033 27.824 51.142C27.824 49.938 28.062 48.9207 28.538 48.09C29.014 47.25 29.6534 46.6247 30.456 46.214C31.2587 45.794 32.1454 45.584 33.116 45.584C33.7414 45.584 34.3294 45.654 34.88 45.794C35.4307 45.934 35.916 46.116 36.336 46.34L35.678 48.23C35.4074 48.0807 35.034 47.9453 34.558 47.824C34.0914 47.6933 33.6994 47.628 33.382 47.628C32.262 47.628 31.4034 47.908 30.806 48.468C30.218 49.028 29.924 49.8587 29.924 50.96C29.924 51.5947 30.0687 52.15 30.358 52.626C30.6474 53.0927 31.0487 53.452 31.562 53.704C32.0847 53.956 32.6774 54.082 33.34 54.082C33.9747 54.082 34.446 53.9933 34.754 53.816V52.57H32.976V50.61H36.812V54.964Z" fill="white"/>
	<path d="M10.2119 57.4H37.792V58.1H10.2119V57.4Z" fill="white"/>
	<path d="M48 12L36 0V8C36 10.2091 37.7909 12 40 12H48Z" fill="#F2D194"/>
</svg>
