<?xml version="1.0" encoding="iso-8859-1"?>
<svg width="48" height="64" viewBox="0 0 48 64" fill="none" xmlns="http://www.w3.org/2000/svg">
	<path fill-rule="evenodd" clip-rule="evenodd" d="M4 0C1.79086 0 0 1.79086 0 4V60C0 62.2091 1.79086 64 4 64H44C46.2091 64 48 62.2091 48 60V12L36 0H4Z" fill="#F2E1C2"/>
	<path d="M0 40H48V60C48 62.2091 46.2091 64 44 64H4C1.79086 64 0 62.2091 0 60V40Z" fill="#EDD84E"/>
	<path d="M16.1231 54.992C16.1231 54.712 16.2258 54.474 16.4311 54.278C16.6364 54.0727 16.8698 53.97 17.1311 53.97C17.3738 53.97 17.5978 54.0727 17.8031 54.278C18.0084 54.474 18.1111 54.712 18.1111 54.992C18.1111 55.2813 18.0084 55.524 17.8031 55.72C17.6071 55.9067 17.3831 56 17.1311 56C16.8698 56 16.6364 55.9067 16.4311 55.72C16.2258 55.5333 16.1231 55.2907 16.1231 54.992ZM22.5893 53.83C22.5893 54.7073 22.412 55.4633 22.0573 56.098C21.712 56.742 21.222 57.2367 20.5873 57.582C19.9527 57.9273 19.22 58.114 18.3893 58.142V56.168C19.8267 56.0933 20.5453 55.3 20.5453 53.788V45.696H22.5893V53.83ZM30.7568 48.188C29.8608 47.6933 29.0815 47.446 28.4188 47.446C27.9708 47.446 27.6208 47.5347 27.3688 47.712C27.1261 47.8893 27.0048 48.1553 27.0048 48.51C27.0048 48.8367 27.1821 49.126 27.5368 49.378C27.9008 49.6207 28.3815 49.854 28.9788 50.078C29.4641 50.2553 29.8795 50.4607 30.2248 50.694C30.5701 50.918 30.8548 51.2307 31.0788 51.632C31.3121 52.0333 31.4288 52.542 31.4288 53.158C31.4288 53.69 31.2888 54.1847 31.0088 54.642C30.7381 55.09 30.3368 55.4493 29.8048 55.72C29.2728 55.9813 28.6381 56.112 27.9008 56.112C27.2848 56.112 26.6735 56.0233 26.0668 55.846C25.4601 55.6593 24.8955 55.3793 24.3728 55.006L25.2688 53.424C25.6235 53.6853 26.0295 53.9 26.4868 54.068C26.9441 54.236 27.3548 54.32 27.7188 54.32C28.1481 54.32 28.5215 54.2313 28.8388 54.054C29.1561 53.8673 29.3148 53.5687 29.3148 53.158C29.3148 52.626 28.8155 52.164 27.8168 51.772C27.2288 51.5387 26.7388 51.3147 26.3468 51.1C25.9548 50.8853 25.6141 50.5773 25.3248 50.176C25.0448 49.7747 24.9048 49.2707 24.9048 48.664C24.9048 47.7773 25.1941 47.0633 25.7728 46.522C26.3608 45.9807 27.1401 45.6867 28.1108 45.64C28.8761 45.64 29.5155 45.7287 30.0288 45.906C30.5421 46.074 31.0415 46.3167 31.5268 46.634L30.7568 48.188Z" fill="#363636"/>
	<path d="M15.9131 57.4H32.0868V58.1H15.9131V57.4Z" fill="#363636"/>
	<path d="M48 12L36 0V8C36 10.2091 37.7909 12 40 12H48Z" fill="#F2D194"/>
</svg>
