<?xml version="1.0" encoding="iso-8859-1"?>
<svg width="48" height="64" viewBox="0 0 48 64" fill="none" xmlns="http://www.w3.org/2000/svg">
	<path fill-rule="evenodd" clip-rule="evenodd" d="M4 0C1.79086 0 0 1.79086 0 4V60C0 62.2091 1.79086 64 4 64H44C46.2091 64 48 62.2091 48 60V12L36 0H4Z" fill="#F2E1C2"/>
	<path d="M0 40H48V60C48 62.2091 46.2091 64 44 64H4C1.79086 64 0 62.2091 0 60V40Z" fill="#7CA5CC"/>
	<path d="M9.36234 54.992C9.36234 54.712 9.46501 54.474 9.67034 54.278C9.87568 54.0727 10.109 53.97 10.3703 53.97C10.613 53.97 10.837 54.0727 11.0423 54.278C11.2477 54.474 11.3503 54.712 11.3503 54.992C11.3503 55.2813 11.2477 55.524 11.0423 55.72C10.8463 55.9067 10.6223 56 10.3703 56C10.109 56 9.87568 55.9067 9.67034 55.72C9.46501 55.5333 9.36234 55.2907 9.36234 54.992ZM16.0106 45.696C17.2706 45.696 18.2459 46.0087 18.9366 46.634C19.6273 47.25 19.9726 48.0947 19.9726 49.168C19.9726 49.784 19.8513 50.3627 19.6086 50.904C19.3753 51.436 18.9879 51.8747 18.4466 52.22C17.9146 52.5653 17.2239 52.738 16.3746 52.738H14.9186V56H12.8886V45.696H16.0106ZM16.3606 50.764C16.7433 50.764 17.0513 50.68 17.2846 50.512C17.5179 50.3347 17.6859 50.1293 17.7886 49.896C17.8913 49.6627 17.9426 49.4387 17.9426 49.224C17.9426 48.86 17.8353 48.51 17.6206 48.174C17.4059 47.8287 16.9906 47.656 16.3746 47.656H14.9186V50.764H16.3606ZM28.817 45.696V47.656H23.819V49.854H28.243V51.814H23.819V54.04H29.013V56H21.789V45.696H28.817ZM36.4192 50.568C36.9605 50.82 37.3805 51.1513 37.6792 51.562C37.9872 51.9633 38.1412 52.43 38.1412 52.962C38.1412 54.0073 37.7959 54.7773 37.1052 55.272C36.4239 55.7573 35.5699 56 34.5432 56H31.1132V45.696H34.1372C35.2292 45.696 36.0879 45.92 36.7132 46.368C37.3385 46.8067 37.6512 47.446 37.6512 48.286C37.6512 48.7993 37.5439 49.252 37.3292 49.644C37.1145 50.0267 36.8112 50.3347 36.4192 50.568ZM33.1432 49.91H34.3752C34.7485 49.91 35.0379 49.798 35.2432 49.574C35.4485 49.3407 35.5512 49.056 35.5512 48.72C35.5512 48.3747 35.4345 48.1133 35.2012 47.936C34.9679 47.7493 34.6459 47.656 34.2352 47.656H33.1432V49.91ZM34.4452 54.11C34.9212 54.11 35.3039 54.0167 35.5932 53.83C35.8919 53.634 36.0412 53.3447 36.0412 52.962C36.0412 52.234 35.4625 51.87 34.3052 51.87H33.1432V54.11H34.4452Z" fill="white"/>
	<path d="M9.15234 57.4H38.8412V58.1H9.15234V57.4Z" fill="white"/>
	<path d="M48 12L36 0V8C36 10.2091 37.7909 12 40 12H48Z" fill="#F2D194"/>
</svg>
