<?xml version="1.0" encoding="iso-8859-1"?>
<svg width="48" height="64" viewBox="0 0 48 64" fill="none" xmlns="http://www.w3.org/2000/svg">
	<path fill-rule="evenodd" clip-rule="evenodd" d="M4 0C1.79086 0 0 1.79086 0 4V60C0 62.2091 1.79086 64 4 64H44C46.2091 64 48 62.2091 48 60V12L36 0H4Z" fill="#F2E1C2"/>
	<path d="M0 40H48V60C48 62.2091 46.2091 64 44 64H4C1.79086 64 0 62.2091 0 60V40Z" fill="#7F8181"/>
	<path d="M2.34867 54.992C2.34867 54.712 2.45134 54.474 2.65667 54.278C2.86201 54.0727 3.09534 53.97 3.35667 53.97C3.59934 53.97 3.82334 54.0727 4.02867 54.278C4.23401 54.474 4.33667 54.712 4.33667 54.992C4.33667 55.2813 4.23401 55.524 4.02867 55.72C3.83267 55.9067 3.60867 56 3.35667 56C3.09534 56 2.86201 55.9067 2.65667 55.72C2.45134 55.5333 2.34867 55.2907 2.34867 54.992ZM11.4217 45.696V47.656H8.91566V56H6.88566V47.656H4.47766V45.696H11.4217ZM12.3953 50.862C12.3953 49.9287 12.6286 49.056 13.0953 48.244C13.5713 47.432 14.2106 46.788 15.0133 46.312C15.8253 45.8267 16.7026 45.584 17.6453 45.584C18.588 45.584 19.4606 45.8267 20.2633 46.312C21.0753 46.788 21.7193 47.432 22.1953 48.244C22.6806 49.056 22.9233 49.9287 22.9233 50.862C22.9233 51.814 22.6806 52.6913 22.1953 53.494C21.7193 54.2967 21.0753 54.936 20.2633 55.412C19.4606 55.8787 18.588 56.112 17.6453 56.112C16.6933 56.112 15.816 55.8787 15.0133 55.412C14.2106 54.936 13.5713 54.2967 13.0953 53.494C12.6286 52.6913 12.3953 51.814 12.3953 50.862ZM14.4953 50.862C14.4953 51.4593 14.6353 52.01 14.9153 52.514C15.2046 53.018 15.592 53.4193 16.0773 53.718C16.572 54.0073 17.118 54.152 17.7153 54.152C18.294 54.152 18.8213 54.0073 19.2973 53.718C19.7733 53.4193 20.1466 53.0227 20.4173 52.528C20.688 52.024 20.8233 51.4687 20.8233 50.862C20.8233 50.246 20.6833 49.686 20.4033 49.182C20.1233 48.678 19.7406 48.2813 19.2553 47.992C18.7793 47.6933 18.2473 47.544 17.6593 47.544C17.0713 47.544 16.5346 47.6933 16.0493 47.992C15.5733 48.2813 15.1953 48.678 14.9153 49.182C14.6353 49.686 14.4953 50.246 14.4953 50.862ZM35.5592 45.276V56H33.5292V51.086L30.1692 55.86H30.1412L26.9072 51.394V56H24.9472V45.276H24.9612L30.1832 52.682L35.5312 45.276H35.5592ZM40.2526 45.696V54.04H45.0966V56H38.2226V45.696H40.2526Z" fill="white"/>
	<path d="M2.13867 57.4H45.8666V58.1H2.13867V57.4Z" fill="white"/>
	<path d="M48 12L36 0V8C36 10.2091 37.7909 12 40 12H48Z" fill="#F2D194"/>
</svg>
