<?xml version="1.0" encoding="iso-8859-1"?>
<svg width="48" height="64" viewBox="0 0 48 64" fill="none" xmlns="http://www.w3.org/2000/svg">
	<path fill-rule="evenodd" clip-rule="evenodd" d="M4 0C1.79086 0 0 1.79086 0 4V60C0 62.2091 1.79086 64 4 64H44C46.2091 64 48 62.2091 48 60V12L36 0H4Z" fill="#F2E1C2"/>
	<path d="M0 40H48V60C48 62.2091 46.2091 64 44 64H4C1.79086 64 0 62.2091 0 60V40Z" fill="#3F95A3"/>
	<path d="M3.42875 54.992C3.42875 54.712 3.53142 54.474 3.73675 54.278C3.94208 54.0727 4.17542 53.97 4.43675 53.97C4.67942 53.97 4.90342 54.0727 5.10875 54.278C5.31408 54.474 5.41675 54.712 5.41675 54.992C5.41675 55.2813 5.31408 55.524 5.10875 55.72C4.91275 55.9067 4.68875 56 4.43675 56C4.17542 56 3.94208 55.9067 3.73675 55.72C3.53142 55.5333 3.42875 55.2907 3.42875 54.992ZM14.1285 45.696L10.2645 52.794V56H8.23447V52.794L4.44047 45.696H6.94647L9.31247 50.456L11.6225 45.696H14.1285ZM19.2151 53.984H15.7991L14.9591 56H12.9571L17.6051 45.29H17.7171L22.3651 56H20.0131L19.2151 53.984ZM18.5431 52.276L17.5491 49.77L16.5131 52.276H18.5431ZM34.4791 45.276V56H32.4491V51.086L29.0891 55.86H29.0611L25.8271 51.394V56H23.8671V45.276H23.8811L29.1031 52.682L34.4511 45.276H34.4791ZM39.1725 45.696V54.04H44.0165V56H37.1425V45.696H39.1725Z" fill="white"/>
	<path d="M3.21875 57.4H44.7865V58.1H3.21875V57.4Z" fill="white"/>
	<path d="M48 12L36 0V8C36 10.2091 37.7909 12 40 12H48Z" fill="#F2D194"/>
</svg>
